<?xml version="1.0" encoding="UTF-8" standalone="no"?>
<!-- Created with Inkscape (http://www.inkscape.org/) -->

<svg
   width="210mm"
   height="297mm"
   viewBox="0 0 210 297"
   version="1.1"
   id="svg1"
   xml:space="preserve"
   xmlns:inkscape="http://www.inkscape.org/namespaces/inkscape"
   xmlns:sodipodi="http://sodipodi.sourceforge.net/DTD/sodipodi-0.dtd"
   xmlns="http://www.w3.org/2000/svg"
   xmlns:svg="http://www.w3.org/2000/svg"><sodipodi:namedview
     id="namedview1"
     pagecolor="#ffffff"
     bordercolor="#000000"
     borderopacity="0.25"
     inkscape:showpageshadow="2"
     inkscape:pageopacity="0.0"
     inkscape:pagecheckerboard="0"
     inkscape:deskcolor="#d1d1d1"
     inkscape:document-units="mm" /><defs
     id="defs1" /><g
     inkscape:label="Camada 1"
     inkscape:groupmode="layer"
     id="layer1"><path
       style="fill:#000000"
       d="m 88.22894,210.30997 c -6.32973,-1.53438 -10.522051,-7.77501 -9.529746,-14.18584 1.050903,-6.78942 7.486984,-11.59224 14.232131,-10.6205 5.575218,0.80319 9.980095,5.19226 10.779435,10.74076 1.2654,8.78355 -6.851256,16.15771 -15.48182,14.06558 z m 46.56666,0 c -6.32973,-1.53438 -10.52205,-7.77501 -9.52974,-14.18584 1.0509,-6.78942 7.48698,-11.59224 14.23213,-10.6205 5.57522,0.80319 9.9801,5.19226 10.77944,10.74076 1.2654,8.78355 -6.85126,16.15771 -15.48183,14.06558 z M 75.882336,180.80189 c -4.466062,-0.87709 -8.474631,-4.76322 -9.6777,-9.38211 -1.385098,-5.31775 1.091102,-11.10875 5.971297,-13.96484 0.669378,-0.39175 2.098128,-0.93636 3.175,-1.21024 1.793704,-0.4562 1.950719,-0.55038 1.871759,-1.12262 -0.0474,-0.34355 -3.383044,-14.61448 -7.412532,-31.71318 L 62.483818,92.320359 54.926144,92.188067 47.36847,92.055775 46.434765,91.343106 c -2.424455,-1.850515 -2.354091,-5.072079 0.151665,-6.943899 0.701622,-0.524117 1.108576,-0.548479 10.374814,-0.6211 8.576679,-0.06722 9.74804,-0.02648 10.579257,0.367963 1.777764,0.843604 2.071173,1.542664 3.878995,9.241872 l 1.675224,7.134498 44.30812,0.13229 44.30812,0.13229 1.38771,0.56938 c 5.35138,2.19568 8.53805,6.76406 8.53305,12.23288 -0.002,1.92592 -9.38228,41.36401 -10.31284,43.35781 -1.33629,2.86312 -3.84065,5.12104 -7.21604,6.50597 l -1.38771,0.56938 -37.88226,0.13229 c -37.745596,0.13181 -37.884889,0.13426 -38.612814,0.67781 -1.388369,1.0367 -1.82159,1.8823 -1.82159,3.55552 0,1.67324 0.433235,2.51885 1.821618,3.55553 0.727852,0.54347 0.871039,0.54601 38.236606,0.67781 l 37.50602,0.13229 0.93429,0.71267 c 1.92122,1.46549 2.32487,4.02647 0.92409,5.86299 -1.44612,1.89596 1.62542,1.76194 -39.64282,1.72972 -20.423684,-0.0159 -37.656854,-0.13167 -38.295934,-0.25718 z"
       id="path1" /></g></svg>
