<?xml version="1.0" encoding="UTF-8" standalone="no"?>
<!-- Created with Inkscape (http://www.inkscape.org/) -->

<svg
   width="157.83578mm"
   height="158.50075mm"
   viewBox="0 0 157.83578 158.50075"
   version="1.1"
   id="svg1"
   xml:space="preserve"
   inkscape:export-filename="user.svg"
   inkscape:export-xdpi="13.304762"
   inkscape:export-ydpi="13.304762"
   xmlns:inkscape="http://www.inkscape.org/namespaces/inkscape"
   xmlns:sodipodi="http://sodipodi.sourceforge.net/DTD/sodipodi-0.dtd"
   xmlns="http://www.w3.org/2000/svg"
   xmlns:svg="http://www.w3.org/2000/svg"><sodipodi:namedview
     id="namedview1"
     pagecolor="#ffffff"
     bordercolor="#000000"
     borderopacity="0.25"
     inkscape:showpageshadow="2"
     inkscape:pageopacity="0.0"
     inkscape:pagecheckerboard="0"
     inkscape:deskcolor="#d1d1d1"
     inkscape:document-units="mm" /><defs
     id="defs1" /><g
     inkscape:label="Camada 1"
     inkscape:groupmode="layer"
     id="layer1"
     transform="translate(-23.185622,-55.185404)"><path
       style="fill:#000000"
       d="m 91.194558,213.52666 c -0.03142,-0.0873 -1.098202,-0.23973 -2.37063,-0.33865 -1.943526,-0.1511 -2.464239,-0.25446 -3.256046,-0.64628 -0.69116,-0.34201 -1.285329,-0.48602 -2.227821,-0.53993 -1.192651,-0.0682 -2.901602,-0.5382 -3.364507,-0.92527 -0.10907,-0.0912 -0.649825,-0.24848 -1.201677,-0.34952 -0.551852,-0.10104 -1.227072,-0.22538 -1.500488,-0.27631 -0.273416,-0.0509 -0.820135,-0.31223 -1.21493,-0.58068 -0.394796,-0.26844 -1.057936,-0.53923 -1.473644,-0.60174 -0.415709,-0.0625 -1.102861,-0.32967 -1.527003,-0.59369 -0.424143,-0.26401 -1.089834,-0.53185 -1.479314,-0.59518 -0.38948,-0.0633 -1.222274,-0.41785 -1.850654,-0.78782 -0.62838,-0.36996 -1.415259,-0.72421 -1.748621,-0.78722 -0.333362,-0.063 -0.803627,-0.29898 -1.045034,-0.52439 -0.241407,-0.22541 -0.755316,-0.49461 -1.142021,-0.59822 -0.386705,-0.10361 -0.970276,-0.39489 -1.296825,-0.64728 -0.32655,-0.25239 -0.904926,-0.61671 -1.285282,-0.8096 -0.380355,-0.1929 -1.01777,-0.56195 -1.416476,-0.82013 -0.398706,-0.25818 -0.790127,-0.46941 -0.869825,-0.46941 -0.0797,0 -0.331859,-0.20263 -0.56036,-0.45027 -0.228501,-0.24765 -0.818633,-0.63111 -1.311405,-0.85212 -0.872095,-0.39115 -1.827589,-1.056 -2.87421,-1.99991 -0.282762,-0.25501 -1.169606,-0.91 -1.970765,-1.45552 -2.028697,-1.38138 -3.427307,-2.65452 -8.035576,-7.3147 -3.863915,-3.90743 -6.268624,-6.67264 -6.914369,-7.95092 -0.169261,-0.33506 -0.499466,-0.80344 -0.73379,-1.04084 -0.746073,-0.75588 -1.913922,-2.4853 -2.040382,-3.02152 -0.06719,-0.28488 -0.338657,-0.75106 -0.603268,-1.03594 -0.613921,-0.66097 -1.723002,-2.27284 -1.723002,-2.50412 0,-0.23699 -0.316938,-0.788 -0.962662,-1.67362 -0.293829,-0.40299 -0.581369,-1.02969 -0.638978,-1.39266 -0.06576,-0.41431 -0.297463,-0.84597 -0.622518,-1.15973 -0.284776,-0.27488 -0.519469,-0.66007 -0.521539,-0.85596 -0.0039,-0.36951 -0.398545,-1.23882 -1.102272,-2.42808 -0.22477,-0.37985 -0.414889,-0.87471 -0.422487,-1.09969 -0.0076,-0.22498 -0.283724,-0.85671 -0.613613,-1.40385 -0.397078,-0.65857 -0.599797,-1.20888 -0.599797,-1.62825 0,-0.61018 -0.324992,-1.45653 -0.767053,-1.99757 -0.116385,-0.14244 -0.34612,-0.8417 -0.510522,-1.55392 -0.263124,-1.13989 -0.588042,-2.02474 -1.169507,-3.18493 -0.09264,-0.18483 -0.222629,-1.03949 -0.288869,-1.89923 -0.09032,-1.17232 -0.231529,-1.78213 -0.564741,-2.43887 -0.351456,-0.6927 -0.467684,-1.23393 -0.556176,-2.58987 -0.143747,-2.20262 -0.384594,-3.65284 -0.714798,-4.30404 -0.167102,-0.32955 -0.321484,-1.39731 -0.424381,-2.93519 -0.08895,-1.32946 -0.235101,-2.44311 -0.324775,-2.47476 -0.228191,-0.0805 -0.218423,-10.34088 0.0099,-10.41757 0.09513,-0.0319 0.218545,-0.95135 0.274258,-2.04312 0.07271,-1.42481 0.218241,-2.33691 0.515671,-3.23184 0.283282,-0.85235 0.475367,-1.99906 0.607162,-3.62462 0.148695,-1.83399 0.304748,-2.69019 0.682333,-3.74368 0.315854,-0.88126 0.489547,-1.70437 0.489547,-2.31991 0,-0.94346 0.552231,-2.98085 0.943766,-3.48193 0.111304,-0.14244 0.325848,-0.77866 0.476765,-1.41383 0.150917,-0.63516 0.47942,-1.46698 0.730007,-1.84849 0.29054,-0.44233 0.498702,-1.05609 0.574545,-1.69401 0.109104,-0.91769 0.445905,-1.68036 1.000011,-2.26447 0.119039,-0.12549 0.216435,-0.44347 0.216435,-0.70664 0,-0.26317 0.191795,-0.82091 0.426211,-1.23944 0.234416,-0.41852 0.47199,-0.87749 0.527943,-1.01994 0.350565,-0.89246 0.869185,-1.878102 1.201558,-2.28358 0.212198,-0.258871 0.440652,-0.725047 0.507675,-1.035948 0.06702,-0.310901 0.343856,-0.848888 0.615183,-1.195527 0.271327,-0.346638 0.541155,-0.871209 0.599616,-1.165713 0.05846,-0.294504 0.394126,-0.865548 0.745921,-1.268986 0.351795,-0.403439 0.699453,-0.927765 0.772574,-1.16517 0.07312,-0.237404 0.354002,-0.714762 0.624179,-1.060794 0.270178,-0.346032 0.491232,-0.679058 0.491232,-0.740057 0,-0.061 0.385584,-0.617759 0.856854,-1.237244 0.47127,-0.619485 0.856854,-1.200933 0.856854,-1.292106 0,-0.09117 0.18354,-0.458698 0.407866,-0.816722 L 38.913876,87.026969 37.9208,86.128523 c -0.992171,-0.897628 -1.054807,-1.011796 -1.772893,-3.231512 -0.343106,-1.060591 -0.35676,-2.283966 -0.03513,-3.147514 0.133348,-0.358029 0.285177,-0.849073 0.337397,-1.09121 0.111787,-0.518336 1.103528,-1.582374 2.188934,-2.348503 1.446323,-1.020883 1.916749,-1.096054 6.859167,-1.096054 h 4.474845 l 0.788819,-0.636631 c 0.43385,-0.350147 1.174403,-0.99114 1.645673,-1.42443 1.484033,-1.364434 3.422919,-2.839405 3.956551,-3.009871 0.19677,-0.06286 0.620913,-0.352154 0.942539,-0.642881 0.791192,-0.715182 2.713306,-1.984397 3.241024,-2.140123 0.235635,-0.06953 0.659778,-0.341619 0.94254,-0.604635 0.627058,-0.583268 1.150484,-0.864961 1.607219,-0.864961 0.189459,0 0.634639,-0.267825 0.989287,-0.595166 0.402163,-0.371197 0.899769,-0.638564 1.322317,-0.710489 0.372625,-0.06343 0.867785,-0.307037 1.100355,-0.541354 0.23257,-0.234316 0.880453,-0.573313 1.439741,-0.753326 0.559287,-0.180012 1.299601,-0.562083 1.645142,-0.849047 0.447015,-0.371234 0.810067,-0.521752 1.258481,-0.521752 0.469263,0 0.813579,-0.15434 1.348134,-0.604303 0.564226,-0.474937 0.870357,-0.605115 1.430024,-0.608095 0.648358,-0.0035 1.220843,-0.218854 2.55175,-0.960116 0.25777,-0.143567 0.951822,-0.346694 1.542338,-0.451394 0.590516,-0.104699 1.552344,-0.450656 2.137395,-0.768794 0.899957,-0.489376 1.237783,-0.578432 2.194241,-0.578432 0.930788,0 1.290099,-0.08946 2.033842,-0.50638 0.81085,-0.454537 1.156408,-0.526345 3.375311,-0.701398 2.502035,-0.197389 3.052965,-0.291415 4.442745,-0.758233 0.424143,-0.142467 1.368824,-0.308898 2.099293,-0.369847 0.730468,-0.06095 1.328124,-0.181883 1.328124,-0.268743 0,-0.0929 2.893243,-0.157927 7.026205,-0.157927 4.13296,0 7.02621,0.06503 7.02621,0.157927 0,0.08686 0.59765,0.212562 1.32812,0.279338 0.73047,0.06678 1.59803,0.23651 1.92792,0.377187 1.13253,0.48295 1.63418,0.568376 4.42076,0.752816 2.54496,0.168447 2.88239,0.229666 3.80339,0.690053 0.73777,0.368796 1.25838,0.505207 1.92812,0.505207 0.70784,0 1.18004,0.135473 2.06661,0.592908 0.63203,0.326099 1.47665,0.625072 1.87693,0.664385 1.00003,0.09822 2.20118,0.471035 2.61284,0.810986 0.51591,0.426029 1.23566,0.694249 1.86298,0.694249 0.36685,0 0.85408,0.209531 1.40519,0.604303 0.51017,0.365432 1.04707,0.604965 1.35829,0.605979 0.32783,0.0011 0.78685,0.219673 1.2644,0.602143 0.65852,0.527404 1.61847,0.946214 2.17555,0.94914 0.10084,5.3e-4 0.44426,0.235659 0.76316,0.522509 0.32609,0.293322 0.86106,0.566857 1.22253,0.625093 0.3819,0.06153 0.83718,0.303344 1.12192,0.595891 0.26356,0.270789 0.86478,0.622173 1.33605,0.780853 0.47127,0.15868 1.14626,0.549338 1.49999,0.86813 0.35372,0.318791 0.72821,0.579621 0.83219,0.579621 0.10398,0 0.48116,0.233088 0.83818,0.517974 0.35702,0.284886 0.77276,0.517974 0.92386,0.517974 0.15111,0 0.56416,0.253113 0.91788,0.562474 1.48328,1.297248 2.44254,2.035948 2.84311,2.189386 0.66045,0.252989 2.267,1.548597 4.05506,3.270224 0.89542,0.862143 2.28352,2.171328 3.08468,2.9093 0.80116,0.737972 1.95346,1.88564 2.56067,2.550373 0.60721,0.664734 1.93111,2.102111 2.942,3.194173 1.98856,2.148235 3.23724,3.663482 3.23724,3.92832 0,0.09171 0.61694,0.994939 1.37097,2.007186 0.75403,1.012247 1.37096,1.903041 1.37096,1.979543 0,0.0765 0.26991,0.521578 0.5998,0.989059 0.32989,0.467481 0.5998,0.928704 0.5998,1.02494 0,0.09623 0.18549,0.37652 0.4122,0.622853 0.45294,0.492145 1.12843,1.737139 1.1331,2.08842 0.002,0.122485 0.20228,0.413297 0.4459,0.646248 0.49582,0.474111 0.75073,1.03559 0.75073,1.653581 0,0.227918 0.23355,0.682392 0.519,1.009941 0.28545,0.32755 0.63272,0.981361 0.77171,1.452911 0.13899,0.47155 0.36957,0.95508 0.51239,1.0745 0.36474,0.30498 0.71667,1.15955 0.84226,2.04521 0.0588,0.41435 0.32881,1.0784 0.6001,1.47568 0.28213,0.41314 0.54743,1.08835 0.61981,1.57751 0.11234,0.75915 0.45752,1.55706 0.78077,1.80482 0.16125,0.1236 0.66598,2.18582 0.66898,2.73331 0.001,0.25348 0.11127,0.65511 0.24416,0.89251 0.71734,1.28143 0.90493,1.90452 0.99078,3.29089 0.0764,1.23379 0.17353,1.60579 0.60743,2.32622 0.48937,0.81254 0.5229,0.98841 0.63866,3.34968 0.11949,2.43739 0.45456,4.35682 0.78061,4.47176 0.10057,0.0355 0.16325,3.4685 0.16325,8.94113 0,7.39905 -0.0408,8.94747 -0.24444,9.26598 -0.28695,0.44888 -0.55506,2.294 -0.77061,5.30315 -0.12816,1.78919 -0.23246,2.31736 -0.60998,3.08886 -0.31099,0.63556 -0.48382,1.31987 -0.54506,2.15823 -0.0859,1.17542 -0.20166,1.56549 -0.93153,3.13818 -0.17919,0.38608 -0.32579,0.86789 -0.32579,1.07068 0,0.70871 -0.48079,2.21999 -0.90806,2.85434 -0.23695,0.35179 -0.48359,1.02615 -0.54808,1.49857 -0.075,0.54909 -0.29004,1.07802 -0.59621,1.46618 -0.28111,0.35638 -0.5272,0.93137 -0.59575,1.39192 -0.13946,0.93692 -0.45666,1.74017 -1.01393,2.56751 -0.2258,0.33525 -0.46468,0.90022 -0.53084,1.25551 -0.0661,0.35528 -0.33791,0.87024 -0.6039,1.14435 -0.266,0.27411 -0.5313,0.75438 -0.58956,1.06728 -0.0987,0.53014 -1.14646,2.33562 -1.97554,3.40426 -0.19891,0.25639 -0.44645,0.72256 -0.55009,1.03595 -0.10364,0.31339 -0.40113,0.80288 -0.66109,1.08777 -0.25996,0.28488 -0.63037,0.82876 -0.82314,1.2086 -0.45832,0.90315 -2.09914,3.14202 -3.36446,4.59074 -1.06403,1.21827 -1.97724,2.43059 -1.97724,2.62486 0,0.44462 -7.56612,8.24605 -8.73992,9.01173 -0.32988,0.21519 -0.80917,0.57573 -1.06507,0.80119 -0.2559,0.22547 -0.86244,0.72073 -1.34786,1.10057 -0.48542,0.37985 -1.50992,1.24211 -2.27666,1.91614 -0.76674,0.67402 -1.64071,1.35378 -1.94217,1.51057 -0.30145,0.1568 -0.89101,0.51825 -1.31013,0.80324 -0.41912,0.28498 -0.83212,0.51815 -0.91778,0.51815 -0.0857,0 -0.41735,0.27194 -0.73709,0.6043 -0.31974,0.33237 -0.73973,0.60471 -0.93332,0.60521 -0.19358,5e-4 -0.55366,0.13647 -0.80019,0.30216 -0.24652,0.16568 -0.76553,0.5149 -1.15334,0.77605 -0.38782,0.26114 -0.77221,0.47481 -0.85419,0.47481 -0.082,0 -0.45271,0.22161 -0.82384,0.49247 -0.37112,0.27086 -0.94863,0.58353 -1.28334,0.69483 -0.33472,0.11129 -0.86735,0.39471 -1.18363,0.6298 -0.31628,0.2351 -0.66595,0.42745 -0.77703,0.42745 -0.23435,0 -1.83228,0.68901 -1.95926,0.84481 -0.20384,0.25011 -1.70271,0.88177 -2.09235,0.88177 -0.23473,0 -0.74616,0.23309 -1.1365,0.51798 -0.39034,0.28488 -0.92245,0.52138 -1.18246,0.52555 -0.59118,0.009 -1.6877,0.39623 -2.06928,0.72985 -0.36643,0.32037 -1.91771,0.77073 -3.03049,0.87979 -0.48942,0.048 -1.22429,0.29225 -1.71371,0.56967 -0.67347,0.38174 -1.1686,0.5097 -2.31351,0.59791 -1.09596,0.0844 -1.73246,0.24122 -2.57056,0.63318 -0.96756,0.45251 -1.38409,0.53622 -3.17036,0.63713 -1.13105,0.0639 -2.08215,0.18769 -2.11357,0.27509 -0.0765,0.21274 -22.087427,0.21285 -22.163957,1.2e-4 z m 20.210032,-3.99781 c 0.99259,-0.10124 1.82672,-0.29099 2.22529,-0.50621 0.35065,-0.18935 0.83147,-0.34429 1.06851,-0.3443 0.23703,-2e-5 1.0354,-0.11656 1.77416,-0.25899 0.73876,-0.14243 1.76035,-0.25896 2.27021,-0.25896 0.67012,0 1.22394,-0.14115 1.99853,-0.50934 0.67183,-0.31936 1.50782,-0.55416 2.24118,-0.62948 0.82841,-0.0851 1.35339,-0.24695 1.7994,-0.55479 0.34635,-0.23905 0.89964,-0.49183 1.22953,-0.56171 0.32989,-0.0699 1.01858,-0.21324 1.53042,-0.31858 0.51185,-0.10533 1.05166,-0.28865 1.1996,-0.40738 0.46927,-0.37663 1.44521,-0.78651 2.15405,-0.90467 0.37701,-0.0628 0.93808,-0.30743 1.24682,-0.54353 0.30874,-0.23609 1.0531,-0.56664 1.65414,-0.73456 0.60103,-0.16791 1.38951,-0.53997 1.75216,-0.82678 0.36266,-0.28682 0.93505,-0.57226 1.272,-0.63432 0.34961,-0.0644 0.8232,-0.33427 1.10313,-0.62864 0.26977,-0.28371 0.60874,-0.51583 0.75325,-0.51583 0.34129,0 2.96658,-1.62277 3.66491,-2.26538 0.29713,-0.27343 0.66669,-0.49715 0.82123,-0.49715 0.15454,0 0.5721,-0.23308 0.92791,-0.51797 0.35581,-0.28489 0.7008,-0.51797 0.76665,-0.51797 0.0658,0 0.60017,-0.38849 1.18738,-0.86329 0.58721,-0.47481 1.12247,-0.86329 1.18945,-0.86329 0.15456,0 1.6252,-1.11159 2.89836,-2.19073 1.08713,-0.92146 8.43915,-8.28104 9.62169,-9.63158 0.41344,-0.47218 0.85184,-1.09994 0.97421,-1.39501 0.12237,-0.29506 0.34825,-0.64165 0.50197,-0.77018 0.15371,-0.12853 0.42244,-0.51602 0.59717,-0.86109 0.17473,-0.34507 0.44911,-0.7373 0.60974,-0.8716 0.31721,-0.26524 1.73015,-2.31875 2.11071,-3.06762 0.12956,-0.25496 0.44494,-0.69665 0.70084,-0.98154 0.42112,-0.46883 1.03435,-1.59555 1.03435,-1.90048 0,-0.0669 0.23135,-0.41602 0.51412,-0.77571 0.28276,-0.3597 0.51411,-0.73213 0.51411,-0.82763 0,-0.0955 0.26991,-0.57772 0.5998,-1.07161 0.32989,-0.4939 0.59979,-1.00946 0.59979,-1.1457 0,-0.26195 0.38901,-0.95461 0.85953,-1.5305 0.15518,-0.18993 0.40877,-0.75566 0.56354,-1.25719 0.15477,-0.50153 0.46947,-1.16195 0.69933,-1.46759 0.23661,-0.31464 0.47125,-0.93024 0.54085,-1.41901 0.0694,-0.48716 0.33324,-1.18073 0.60562,-1.59186 0.26548,-0.40072 0.6111,-1.24443 0.76804,-1.87492 0.15695,-0.6305 0.49803,-1.55369 0.75796,-2.05154 0.33313,-0.63804 0.50896,-1.29608 0.5958,-2.22971 0.0874,-0.93947 0.26129,-1.58688 0.59824,-2.22698 0.32732,-0.62178 0.51274,-1.29505 0.59622,-2.16482 0.15949,-1.66173 0.56245,-3.57811 0.88416,-4.2049 0.49051,-0.95566 0.66024,-4.30721 0.64997,-12.83448 -0.0105,-8.69579 -0.15413,-11.23827 -0.72006,-12.74349 -0.45678,-1.21493 -0.7184,-2.39865 -0.82734,-3.74331 -0.0615,-0.7585 -0.24979,-1.43459 -0.57887,-2.07793 -0.35638,-0.69672 -0.51999,-1.32465 -0.60733,-2.33089 -0.11186,-1.28866 -0.42367,-2.27537 -0.79569,-2.5179 -0.0883,-0.0576 -0.30258,-0.6496 -0.47613,-1.3156 -0.17355,-0.666 -0.54484,-1.62894 -0.8251,-2.13986 -0.28025,-0.51093 -0.56243,-1.23974 -0.62705,-1.61959 -0.0646,-0.37984 -0.33353,-1.04026 -0.59756,-1.46759 -0.26403,-0.42733 -0.53066,-1.01005 -0.59251,-1.29493 -0.16356,-0.75341 -0.46461,-1.4676 -0.61863,-1.4676 -0.21096,0 -0.85299,-1.19081 -0.85299,-1.58211 0,-0.19457 -0.24775,-0.668933 -0.55057,-1.054142 -0.30282,-0.385209 -0.72752,-1.056806 -0.94378,-1.492439 -0.47794,-0.962733 -0.91619,-1.693547 -1.78565,-2.977728 -0.36384,-0.537385 -0.66152,-1.082051 -0.66152,-1.210371 0,-0.128319 -0.21208,-0.462172 -0.47127,-0.741896 -0.48081,-0.518879 -1.70767,-2.170585 -2.78478,-3.749101 -0.32989,-0.483457 -1.13389,-1.50947 -1.78668,-2.280031 -1.42952,-1.687432 -7.82643,-8.169347 -9.26674,-9.38988 -0.56552,-0.479229 -1.33669,-1.149382 -1.71371,-1.489229 -0.37701,-0.339846 -0.83971,-0.668757 -1.02822,-0.730912 -0.37074,-0.122241 -2.08174,-1.381641 -2.91331,-2.144372 -0.28276,-0.259355 -0.7069,-0.528739 -0.94254,-0.598632 -0.50765,-0.150576 -2.23358,-1.282765 -3.4834,-2.285062 -0.26643,-0.213665 -0.62683,-0.388481 -0.80089,-0.388481 -0.17406,0 -0.67007,-0.271936 -1.10224,-0.604303 -0.43218,-0.332367 -0.8615,-0.604303 -0.95404,-0.604303 -0.29313,0 -1.88523,-0.749542 -1.88523,-0.887543 0,-0.159693 -0.93003,-0.592595 -1.59434,-0.742116 -0.26424,-0.05948 -0.79635,-0.338701 -1.18247,-0.620503 -0.38611,-0.281801 -0.89408,-0.512366 -1.12881,-0.512366 -0.40712,0 -1.71782,-0.550645 -2.26373,-0.951026 -0.14138,-0.103692 -0.76852,-0.319952 -1.39364,-0.48058 -0.62513,-0.160628 -1.57764,-0.525796 -2.1167,-0.811486 -0.57496,-0.304718 -1.24101,-0.519436 -1.61128,-0.519436 -0.62594,0 -2.22779,-0.493019 -3.13132,-0.96376 -0.25847,-0.134665 -0.84008,-0.245867 -1.29247,-0.247114 -0.97231,-0.0027 -3.92653,-0.590599 -4.22601,-0.841019 -0.44416,-0.371382 -1.88261,-0.552008 -5.6774,-0.712912 -2.16688,-0.09188 -4.729,-0.247933 -5.69361,-0.34679 -1.19691,-0.122665 -2.2042,-0.124176 -3.17212,-0.0048 -0.78006,0.09624 -3.384765,0.254953 -5.788241,0.352696 -4.27037,0.173663 -5.497131,0.318708 -6.234392,0.737122 -0.48303,0.274131 -2.251859,0.622953 -4.047858,0.798258 -1.118207,0.109147 -1.695554,0.268205 -2.484877,0.68458 -0.665941,0.351289 -1.276361,0.542626 -1.73248,0.543047 -0.431429,3.97e-4 -1.095312,0.195469 -1.713708,0.503545 -1.03883,0.51753 -2.586671,1.051026 -3.049362,1.051026 -0.14399,0 -0.752839,0.271936 -1.352998,0.604303 -0.600159,0.332367 -1.305048,0.604303 -1.566418,0.604303 -0.26426,0 -0.752431,0.220254 -1.099679,0.496154 -0.343453,0.272885 -0.888541,0.553972 -1.211308,0.624637 -0.322768,0.07067 -0.824027,0.273784 -1.113911,0.451374 -0.687119,0.420946 -2.265332,1.190139 -2.444002,1.191162 -0.07673,4.39e-4 -0.373416,0.22172 -0.659304,0.491735 -0.285887,0.270015 -0.787969,0.541624 -1.115738,0.603575 -0.327768,0.06195 -0.823666,0.326272 -1.101994,0.587378 -0.488548,0.458317 -0.921581,0.759035 -1.461058,1.014626 -0.141381,0.06698 -0.538063,0.341967 -0.881515,0.611075 -0.343453,0.269108 -0.705068,0.489288 -0.803589,0.489288 -0.09852,0 -0.527596,0.29136 -0.953499,0.647468 -0.425904,0.356107 -1.182483,0.941501 -1.681289,1.300876 -0.498805,0.359375 -1.215023,0.919238 -1.591596,1.244141 l -0.684678,0.590733 0.980937,0.957248 c 0.539515,0.526486 1.109982,0.957248 1.267705,0.957248 0.782518,0 3.434592,2.527715 4.113775,3.920875 0.241148,0.494647 0.628448,1.10591 0.860668,1.358362 0.281248,0.305751 0.455845,0.745061 0.522933,1.315774 0.05794,0.492902 0.283723,1.125912 0.531628,1.490495 0.50551,0.743432 0.663632,1.407674 0.886071,3.722234 0.09659,1.005004 0.263591,1.821728 0.406014,1.985567 0.133068,0.153076 0.293565,0.449162 0.356662,0.657969 0.28735,0.950929 0.346536,0.952462 29.007783,0.751767 35.689188,-0.249908 53.270278,-0.0921 55.570338,0.49881 0.33258,0.08544 1.18306,0.209271 1.88997,0.275173 1.00729,0.09391 1.44466,0.227563 2.0222,0.617969 0.4053,0.273981 0.80506,0.498147 0.88834,0.498147 0.0833,0 0.63188,0.388481 1.21909,0.86329 0.58722,0.47481 1.12682,0.86329 1.19913,0.86329 0.17079,0 2.09591,2.290816 3.00466,3.575423 0.42039,0.59426 0.75673,1.29739 0.82893,1.73291 0.0668,0.40309 0.193,0.77742 0.2804,0.83184 0.0874,0.0544 0.32313,0.42327 0.52385,0.81965 0.33999,0.67145 0.36474,0.98104 0.36205,4.52922 l -0.003,3.80851 -0.55888,1.11362 c -0.3781,0.75339 -0.60246,1.50458 -0.69358,2.32222 -0.18396,1.65077 -0.38738,2.46483 -0.82263,3.29199 -0.21287,0.40455 -0.46564,1.3924 -0.59643,2.33088 -0.13358,0.95859 -0.40731,2.0195 -0.66525,2.57839 -0.26793,0.58051 -0.47721,1.40929 -0.53843,2.13224 -0.0692,0.81748 -0.25942,1.50375 -0.61602,2.22273 -0.28373,0.57206 -0.56613,1.43841 -0.62755,1.92522 -0.19865,1.57442 -0.55102,3.06965 -0.79233,3.36217 -0.44374,0.53791 -0.64451,1.25209 -0.64451,2.29265 0,0.83566 -0.11847,1.28946 -0.5998,2.29772 -0.43165,0.90416 -0.60042,1.49334 -0.60201,2.10157 -0.002,0.84622 -0.5404,2.88089 -0.86683,3.27718 -0.27397,0.33258 -0.49193,1.24831 -0.67003,2.81491 -0.0906,0.79664 -0.2633,1.5736 -0.38386,1.72658 -0.52454,0.66555 -0.70358,1.20831 -0.77389,2.34591 -0.0759,1.2272 -0.40909,2.42417 -0.88564,3.18113 -0.14352,0.22797 -0.31891,0.88838 -0.38976,1.4676 -0.2035,1.66347 -0.39134,2.38299 -0.8905,3.4109 -0.31461,0.64787 -0.49942,1.36596 -0.57008,2.21513 -0.0864,1.03831 -0.20406,1.40547 -0.67761,2.11445 -0.31518,0.47187 -0.57305,1.00863 -0.57305,1.19279 0,1.10348 -2.92366,4.47357 -5.19758,5.99123 -0.98384,0.65664 -1.90389,1.06338 -2.40651,1.06389 -0.20056,2.1e-4 -0.82736,0.25272 -1.39288,0.56114 l -1.02823,0.56077 -29.90421,0.0863 -29.904206,0.0863 -1.199596,0.84837 c -0.659778,0.46661 -1.310515,1.01048 -1.446084,1.20861 -0.135568,0.19813 -0.803296,0.94295 -1.48384,1.65517 -1.821391,1.90615 -2.468257,2.97368 -2.468257,4.0734 0,1.12274 0.349744,1.59235 1.665538,2.23635 0.939783,0.45997 1.158083,0.49145 4.246755,0.61249 1.790825,0.0702 14.939252,0.13754 29.21873,0.14969 14.27947,0.0121 26.27471,0.0831 26.65608,0.1576 0.38137,0.0745 1.08531,0.43031 1.5643,0.7906 0.68824,0.51767 1.02271,0.95669 1.59463,2.09312 0.71509,1.42089 0.72291,1.45616 0.65576,2.95719 -0.0676,1.51114 -0.0728,1.52622 -0.98219,2.85726 -0.50283,0.73595 -1.00831,1.3381 -1.12329,1.3381 -0.11498,0 -0.5172,0.22489 -0.89383,0.49977 -1.57677,1.15079 1.31991,1.05477 -31.6187,1.04808 -31.329357,-0.006 -31.255693,-0.005 -32.37554,-0.74393 -0.242539,-0.16011 -0.895255,-0.41032 -1.450479,-0.55603 -0.555224,-0.1457 -1.16571,-0.41277 -1.356634,-0.59348 -0.190924,-0.18071 -0.65455,-0.45749 -1.030279,-0.61506 -0.648342,-0.27189 -4.024876,-3.41513 -4.024876,-3.74678 0,-0.0831 -0.231351,-0.48989 -0.514113,-0.90396 -0.282762,-0.41407 -0.514112,-0.83333 -0.514112,-0.93171 0,-0.24905 -0.540804,-1.42935 -0.803777,-1.75423 -0.966659,-1.19421 -0.955174,-9.35905 0.0148,-10.52096 0.231059,-0.27678 0.788977,-1.43857 0.788977,-1.64294 0,-0.0669 0.23135,-0.41601 0.514112,-0.77571 0.282762,-0.3597 0.514113,-0.78309 0.514113,-0.94088 0,-0.15778 1.23656,-1.55114 2.747911,-3.09634 1.511351,-1.5452 2.874616,-2.99172 3.029477,-3.21447 0.307911,-0.44291 0.324418,-1.72642 0.02935,-2.28191 -0.09486,-0.17857 -0.236204,-1.12697 -0.314105,-2.10756 -0.102369,-1.28859 -0.262281,-2.06412 -0.576792,-2.79731 -0.294575,-0.6867 -0.531746,-1.76743 -0.73414,-3.3453 -0.164441,-1.28199 -0.397111,-2.48628 -0.517045,-2.6762 -0.119933,-0.18993 -0.295113,-0.6561 -0.389288,-1.03595 -0.09417,-0.37985 -0.250883,-1.00142 -0.348242,-1.38126 -0.09736,-0.37985 -0.179118,-1.15681 -0.18169,-1.72658 -0.0034,-0.74507 -0.148867,-1.39246 -0.518201,-2.30561 -0.282439,-0.69832 -0.513835,-1.55297 -0.514214,-1.89924 -0.0012,-1.07977 -0.505238,-3.82331 -0.780079,-4.24593 -0.311481,-0.47895 -0.542376,-1.65863 -0.761769,-3.89199 -0.0885,-0.90088 -0.271785,-1.87208 -0.407305,-2.15822 -0.586234,-1.23779 -0.772584,-1.99518 -0.852078,-3.46314 -0.06468,-1.19434 -0.192634,-1.80345 -0.544059,-2.58987 -0.43762,-0.97931 -0.646447,-2.06383 -0.879528,-4.56774 -0.05746,-0.61726 -0.225578,-1.35537 -0.373601,-1.64025 -0.460621,-0.88652 -0.864364,-2.70947 -0.879516,-3.97114 -0.01135,-0.94533 -0.128169,-1.47188 -0.536255,-2.41721 -0.401037,-0.929 -0.555963,-1.61407 -0.66967,-2.96125 -0.15351,-1.81875 -0.419816,-3.09869 -0.72199,-3.47008 -0.243411,-0.29918 -0.640994,-2.27547 -0.79025,-3.92815 -0.06861,-0.7597 -0.227455,-1.56712 -0.352991,-1.79427 -0.440321,-0.79675 -0.875616,-2.704747 -0.875616,-3.838026 0,-1.084416 -0.220113,-2.007158 -0.756957,-3.173266 -0.131154,-0.284885 -0.365192,-1.489175 -0.520084,-2.676199 -0.198538,-1.521511 -0.380328,-2.296239 -0.6162,-2.626043 -0.184019,-0.2573 -0.334579,-0.533419 -0.334579,-0.613598 0,-0.214723 -1.023371,-1.117256 -1.713709,-1.511356 -0.527066,-0.300893 -0.923209,-0.342414 -3.26688,-0.342414 h -2.667083 l -0.861215,0.661704 c -0.473668,0.363937 -0.970052,0.822316 -1.103075,1.01862 -0.133024,0.196303 -0.475675,0.675497 -0.761447,1.064876 -0.285773,0.389378 -0.707103,1.015911 -0.936289,1.392295 -0.229187,0.376384 -0.545516,0.814115 -0.702955,0.972736 -0.503193,0.506972 -1.675309,2.339476 -1.789444,2.797644 -0.06065,0.243472 -0.409375,0.77814 -0.774939,1.188153 -0.365564,0.410013 -0.715338,0.975983 -0.777275,1.257711 -0.06194,0.281729 -0.322586,0.786753 -0.57922,1.122277 -0.256634,0.335525 -0.605152,0.992062 -0.774485,1.458976 -0.169333,0.46691 -0.528377,1.1781 -0.797876,1.58042 -0.269498,0.40232 -0.539776,0.9915 -0.600619,1.30929 -0.06084,0.3178 -0.330312,0.86093 -0.598822,1.20696 -0.326523,0.42079 -0.4882,0.83096 -0.4882,1.23855 0,0.43055 -0.176028,0.84173 -0.599798,1.40107 -0.329889,0.43543 -0.604244,0.92698 -0.609677,1.09234 -0.01781,0.54207 -0.599796,2.59046 -0.807708,2.84286 -0.39887,0.48422 -0.724751,1.51667 -0.724751,2.29615 0,0.71483 -0.361998,1.82943 -0.895938,2.7586 -0.109138,0.18992 -0.25824,1.08343 -0.331338,1.98557 -0.158301,1.95368 -0.502043,3.92405 -0.768088,4.40278 -0.569542,1.02483 -0.755537,4.09434 -0.753271,12.43137 0.0022,8.2563 0.156808,11.38949 0.61411,12.44876 0.338578,0.78426 0.751264,2.88388 0.929835,4.73071 0.09144,0.94568 0.270607,1.57434 0.664304,2.33089 0.400111,0.76886 0.539263,1.26404 0.539742,1.92069 6.73e-4,0.92453 0.360643,2.18863 0.753532,2.64617 0.126364,0.14716 0.365703,0.85028 0.531865,1.5625 0.166162,0.71221 0.562003,1.73242 0.879647,2.26713 0.352577,0.59352 0.577534,1.20029 0.577534,1.55775 0,0.39628 0.166716,0.78932 0.515772,1.21597 0.283675,0.34673 0.560089,0.88888 0.614253,1.20478 0.153906,0.89761 0.432398,1.52266 0.756219,1.69726 0.367543,0.19818 0.855689,1.20387 0.855689,1.76291 0,0.2373 0.221139,0.62987 0.514112,0.91266 0.282762,0.27294 0.514113,0.57999 0.514113,0.68233 0,0.21231 0.668846,1.51792 0.844534,1.64856 0.06385,0.0475 0.300848,0.39711 0.526655,0.77696 0.225806,0.37984 0.617565,0.96256 0.870574,1.29493 0.25301,0.33237 0.505923,0.8053 0.56203,1.05096 0.05611,0.24566 0.35433,0.7198 0.662717,1.05365 0.600048,0.6496 1.606813,2.023 2.001071,2.72982 0.39221,0.70314 1.323744,1.88225 2.724951,3.44916 1.725174,1.9292 7.049194,7.27891 8.337668,8.37791 0.556673,0.47481 1.246605,1.07695 1.533183,1.3381 0.286578,0.26114 0.583605,0.47481 0.660061,0.47481 0.07646,0 1.255391,0.85465 2.619857,1.89924 1.364466,1.04458 2.617084,1.89923 2.783595,1.89923 0.166512,0 0.568361,0.24442 0.892998,0.54316 0.324637,0.29874 0.900921,0.71114 1.280631,0.91645 0.379709,0.2053 1.016595,0.58245 1.415301,0.8381 0.398707,0.25565 0.796274,0.46482 0.883483,0.46482 0.08721,0 0.481623,0.27194 0.876474,0.6043 0.408518,0.34388 0.906417,0.60431 1.155317,0.60431 0.248523,0 0.762469,0.26836 1.19017,0.62146 0.464828,0.38376 1.094306,0.70159 1.645673,0.83093 0.493694,0.11582 1.105759,0.40848 1.368984,0.65459 0.299402,0.27994 0.776377,0.49048 1.285281,0.56733 0.445063,0.0672 1.139924,0.34703 1.544135,0.62183 0.404211,0.27479 1.136821,0.57392 1.628023,0.66473 1.805751,0.33381 2.366115,0.48928 2.65456,0.73651 0.450765,0.38635 1.212555,0.62254 2.423317,0.75134 0.616481,0.0656 1.584058,0.3358 2.200952,0.61466 0.789382,0.35683 1.375121,0.49838 2.070253,0.50032 0.533174,0.001 1.432109,0.11526 1.997632,0.25284 0.565524,0.13757 1.298134,0.25461 1.628023,0.26008 0.329889,0.005 0.908266,0.15084 1.285281,0.32305 0.950237,0.43404 1.82952,0.56438 4.798384,0.71128 3.181194,0.1574 13.490511,0.0378 15.640141,-0.18149 z"
       id="path1" /></g></svg>
