<?xml version="1.0" encoding="UTF-8" standalone="no"?>
<!-- Created with Inkscape (http://www.inkscape.org/) -->

<svg
   version="1.1"
   id="svg1"
   width="682.66669"
   height="682.66669"
   viewBox="0 0 682.66669 682.66669"
   sodipodi:docname="seta_direita.svg"
   inkscape:version="1.3 (0e150ed6c4, 2023-07-21)"
   xmlns:inkscape="http://www.inkscape.org/namespaces/inkscape"
   xmlns:sodipodi="http://sodipodi.sourceforge.net/DTD/sodipodi-0.dtd"
   xmlns="http://www.w3.org/2000/svg"
   xmlns:svg="http://www.w3.org/2000/svg">
  <defs
     id="defs1" />
  <sodipodi:namedview
     id="namedview1"
     pagecolor="#ffffff"
     bordercolor="#000000"
     borderopacity="0.25"
     inkscape:showpageshadow="2"
     inkscape:pageopacity="0.0"
     inkscape:pagecheckerboard="0"
     inkscape:deskcolor="#d1d1d1"
     inkscape:zoom="1.1909179"
     inkscape:cx="341.33334"
     inkscape:cy="341.33334"
     inkscape:window-width="1920"
     inkscape:window-height="1009"
     inkscape:window-x="1912"
     inkscape:window-y="-8"
     inkscape:window-maximized="1"
     inkscape:current-layer="g1" />
  <g
     inkscape:groupmode="layer"
     inkscape:label="Image"
     id="g1">
    <g
       id="g2"
       transform="translate(-0.83969488)"
       style="fill:#000000;fill-opacity:1">
      <path
         style="fill:#000000;fill-opacity:1"
         d="m 245.33334,552.66668 c 0,-0.36666 0.3,-0.66666 0.66667,-0.66666 0.36666,0 0.66666,0.3 0.66666,0.66666 0,0.36667 -0.3,0.66667 -0.66666,0.66667 -0.36667,0 -0.66667,-0.3 -0.66667,-0.66667 z m 20,0 c 0,-0.36666 0.3,-0.66666 0.66667,-0.66666 0.36666,0 0.66666,0.3 0.66666,0.66666 0,0.36667 -0.3,0.66667 -0.66666,0.66667 -0.36667,0 -0.66667,-0.3 -0.66667,-0.66667 z m -25.50341,-4.33333 c -1.65849,-2.11474 -1.61133,-2.1619 0.50341,-0.50341 1.28333,1.00646 2.33333,2.05646 2.33333,2.33334 0,1.09737 -1.09491,0.39107 -2.83674,-1.82993 z m 124.83675,-93.66667 c 52.79618,-52.8 96.29306,-96 96.65972,-96 0.36667,0 -42.53021,43.2 -95.32639,96 -52.79618,52.8 -96.29306,96 -96.65972,96 -0.36667,0 42.53021,-43.2 95.32639,-96 z m -128.66667,88.66667 c 0,-0.36667 0.3,-0.66667 0.66666,-0.66667 0.36667,0 0.66667,0.3 0.66667,0.66667 0,0.36667 -0.3,0.66667 -0.66667,0.66667 -0.36666,0 -0.66666,-0.3 -0.66666,-0.66667 z m 0,-20 c 0,-0.36667 0.3,-0.66667 0.66666,-0.66667 0.36667,0 0.66667,0.3 0.66667,0.66667 0,0.36667 -0.3,0.66667 -0.66667,0.66667 -0.36666,0 -0.66666,-0.3 -0.66666,-0.66667 z M 327.33086,431.00001 416.65922,341.33334 327.33086,251.66667 238.0025,162 l 89.99752,89.66667 89.99751,89.66667 -89.99751,89.66667 -89.99752,89.66667 z m 140.66915,-82.33333 c 0,-0.36667 0.3,-0.66667 0.66667,-0.66667 0.36667,0 0.66667,0.3 0.66667,0.66667 0,0.36666 -0.3,0.66666 -0.66667,0.66666 -0.36667,0 -0.66667,-0.3 -0.66667,-0.66666 z m 0,-14.66667 c 0,-0.36667 0.3,-0.66667 0.66667,-0.66667 0.36667,0 0.66667,0.3 0.66667,0.66667 0,0.36667 -0.3,0.66667 -0.66667,0.66667 -0.36667,0 -0.66667,-0.3 -0.66667,-0.66667 z m -103.3368,-106.33334 -95.99654,-96.33333 96.33334,95.99653 c 89.55154,89.23844 96.93145,96.67014 95.99653,96.67014 -0.18524,0 -43.53524,-43.35 -96.33333,-96.33334 z m -128.6632,-68.33333 c 0,-0.36667 0.3,-0.66667 0.66666,-0.66667 0.36667,0 0.66667,0.3 0.66667,0.66667 0,0.36666 -0.3,0.66666 -0.66667,0.66666 -0.36666,0 -0.66666,-0.3 -0.66666,-0.66666 z m 0,-20 c 0,-0.36667 0.3,-0.66667 0.66666,-0.66667 0.36667,0 0.66667,0.3 0.66667,0.66667 0,0.36666 -0.3,0.66666 -0.66667,0.66666 -0.36666,0 -0.66666,-0.3 -0.66666,-0.66666 z m 2.66666,-3.83674 c 0,-0.27688 1.05,-1.32688 2.33334,-2.33334 2.11474,-1.65849 2.1619,-1.61133 0.5034,0.50341 -1.74182,2.221 -2.83674,2.92731 -2.83674,1.82993 z M 245.33334,130 c 0,-0.36666 0.3,-0.66666 0.66667,-0.66666 0.36666,0 0.66666,0.3 0.66666,0.66666 0,0.36667 -0.3,0.66667 -0.66666,0.66667 -0.36667,0 -0.66667,-0.3 -0.66667,-0.66667 z m 20,0 c 0,-0.36666 0.3,-0.66666 0.66667,-0.66666 0.36666,0 0.66666,0.3 0.66666,0.66666 0,0.36667 -0.3,0.66667 -0.66666,0.66667 -0.36667,0 -0.66667,-0.3 -0.66667,-0.66667 z"
         id="path8" />
      <path
         style="fill:#000000;fill-opacity:1"
         d="m 464.00001,355.33334 c 0,-0.36666 0.3,-0.66666 0.66667,-0.66666 0.36667,0 0.66667,0.3 0.66667,0.66666 0,0.36667 -0.3,0.66667 -0.66667,0.66667 -0.36667,0 -0.66667,-0.3 -0.66667,-0.66667 z m 2.66667,-4 c 0,-0.36666 0.3,-0.66666 0.66667,-0.66666 0.36666,0 0.66666,0.3 0.66666,0.66666 0,0.36667 -0.3,0.66667 -0.66666,0.66667 -0.36667,0 -0.66667,-0.3 -0.66667,-0.66667 z m 0,-20 c 0,-0.36666 0.3,-0.66666 0.66667,-0.66666 0.36666,0 0.66666,0.3 0.66666,0.66666 0,0.36667 -0.3,0.66667 -0.66666,0.66667 -0.36667,0 -0.66667,-0.3 -0.66667,-0.66667 z m -2.66667,-4 c 0,-0.36666 0.3,-0.66666 0.66667,-0.66666 0.36667,0 0.66667,0.3 0.66667,0.66666 0,0.36667 -0.3,0.66667 -0.66667,0.66667 -0.36667,0 -0.66667,-0.3 -0.66667,-0.66667 z"
         id="path7" />
      <path
         style="fill:#000000;fill-opacity:1"
         d="m 249.33334,554.00002 c 0,-0.36667 0.3,-0.66667 0.66667,-0.66667 0.36666,0 0.66666,0.3 0.66666,0.66667 0,0.36666 -0.3,0.66666 -0.66666,0.66666 -0.36667,0 -0.66667,-0.3 -0.66667,-0.66666 z m 12,0 c 0,-0.36667 0.3,-0.66667 0.66667,-0.66667 0.36666,0 0.66666,0.3 0.66666,0.66667 0,0.36666 -0.3,0.66666 -0.66666,0.66666 -0.36667,0 -0.66667,-0.3 -0.66667,-0.66666 z m -26.66667,-14.66667 c 0,-0.36667 0.3,-0.66667 0.66667,-0.66667 0.36667,0 0.66667,0.3 0.66667,0.66667 0,0.36667 -0.3,0.66667 -0.66667,0.66667 -0.36667,0 -0.66667,-0.3 -0.66667,-0.66667 z m 0,-12 c 0,-0.36667 0.3,-0.66667 0.66667,-0.66667 0.36667,0 0.66667,0.3 0.66667,0.66667 0,0.36667 -0.3,0.66667 -0.66667,0.66667 -0.36667,0 -0.66667,-0.3 -0.66667,-0.66667 z M 462.00001,357.33334 c 0.45323,-0.73333 1.12405,-1.33333 1.49072,-1.33333 0.36666,0 0.29584,0.6 -0.15738,1.33333 -0.45323,0.73334 -1.12405,1.33334 -1.49071,1.33334 -0.36667,0 -0.29585,-0.6 0.15737,-1.33334 z m -0.12732,-32.20601 c -0.58944,-0.95373 -0.36575,-1.17741 0.58798,-0.58798 0.84664,0.52326 1.53934,1.21596 1.53934,1.53935 0,1.11219 -1.1774,0.58564 -2.12732,-0.95137 z M 234.66667,155.33334 c 0,-0.36667 0.3,-0.66667 0.66667,-0.66667 0.36667,0 0.66667,0.3 0.66667,0.66667 0,0.36666 -0.3,0.66666 -0.66667,0.66666 -0.36667,0 -0.66667,-0.3 -0.66667,-0.66666 z m 0,-12 c 0,-0.36667 0.3,-0.66667 0.66667,-0.66667 0.36667,0 0.66667,0.3 0.66667,0.66667 0,0.36666 -0.3,0.66666 -0.66667,0.66666 -0.36667,0 -0.66667,-0.3 -0.66667,-0.66666 z m 14.66667,-14.66667 c 0,-0.36667 0.3,-0.66667 0.66667,-0.66667 0.36666,0 0.66666,0.3 0.66666,0.66667 0,0.36667 -0.3,0.66667 -0.66666,0.66667 -0.36667,0 -0.66667,-0.3 -0.66667,-0.66667 z m 12,0 c 0,-0.36667 0.3,-0.66667 0.66667,-0.66667 0.36666,0 0.66666,0.3 0.66666,0.66667 0,0.36667 -0.3,0.66667 -0.66666,0.66667 -0.36667,0 -0.66667,-0.3 -0.66667,-0.66667 z"
         id="path6" />
      <path
         style="fill:#000000;fill-opacity:1"
         d="m 250.66667,554.00002 c 0,-0.36667 0.3,-0.66667 0.66667,-0.66667 0.36667,0 0.66667,0.3 0.66667,0.66667 0,0.36666 -0.3,0.66666 -0.66667,0.66666 -0.36667,0 -0.66667,-0.3 -0.66667,-0.66666 z m 9.33334,0 c 0,-0.36667 0.3,-0.66667 0.66666,-0.66667 0.36667,0 0.66667,0.3 0.66667,0.66667 0,0.36666 -0.3,0.66666 -0.66667,0.66666 -0.36666,0 -0.66666,-0.3 -0.66666,-0.66666 z m -13.33334,-1.33334 c 0,-0.36666 0.3,-0.66666 0.66667,-0.66666 0.36667,0 0.66667,0.3 0.66667,0.66666 0,0.36667 -0.3,0.66667 -0.66667,0.66667 -0.36667,0 -0.66667,-0.3 -0.66667,-0.66667 z m 17.33334,0 c 0,-0.36666 0.3,-0.66666 0.66666,-0.66666 0.36667,0 0.66667,0.3 0.66667,0.66666 0,0.36667 -0.3,0.66667 -0.66667,0.66667 -0.36666,0 -0.66666,-0.3 -0.66666,-0.66667 z m -20,-1.33333 c 0,-0.36667 0.3,-0.66667 0.66666,-0.66667 0.36667,0 0.66667,0.3 0.66667,0.66667 0,0.36667 -0.3,0.66667 -0.66667,0.66667 -0.36666,0 -0.66666,-0.3 -0.66666,-0.66667 z m 22.66666,0 c 0,-0.36667 0.3,-0.66667 0.66667,-0.66667 0.36667,0 0.66667,0.3 0.66667,0.66667 0,0.36667 -0.3,0.66667 -0.66667,0.66667 -0.36667,0 -0.66667,-0.3 -0.66667,-0.66667 z m -29.33333,-6.66667 c 0,-0.36666 0.3,-0.66666 0.66667,-0.66666 0.36666,0 0.66666,0.3 0.66666,0.66666 0,0.36667 -0.3,0.66667 -0.66666,0.66667 -0.36667,0 -0.66667,-0.3 -0.66667,-0.66667 z m -1.33333,-2.66666 c 0,-0.36667 0.3,-0.66667 0.66666,-0.66667 0.36667,0 0.66667,0.3 0.66667,0.66667 0,0.36666 -0.3,0.66666 -0.66667,0.66666 -0.36666,0 -0.66666,-0.3 -0.66666,-0.66666 z m -1.33334,-4 c 0,-0.36667 0.3,-0.66667 0.66667,-0.66667 0.36667,0 0.66667,0.3 0.66667,0.66667 0,0.36666 -0.3,0.66666 -0.66667,0.66666 -0.36667,0 -0.66667,-0.3 -0.66667,-0.66666 z m 0,-9.33334 c 0,-0.36666 0.3,-0.66666 0.66667,-0.66666 0.36667,0 0.66667,0.3 0.66667,0.66666 0,0.36667 -0.3,0.66667 -0.66667,0.66667 -0.36667,0 -0.66667,-0.3 -0.66667,-0.66667 z m 1.33334,-4 c 0,-0.36666 0.3,-0.66666 0.66666,-0.66666 0.36667,0 0.66667,0.3 0.66667,0.66666 0,0.36667 -0.3,0.66667 -0.66667,0.66667 -0.36666,0 -0.66666,-0.3 -0.66666,-0.66667 z m 1.33333,-2.66666 c 0,-0.36667 0.3,-0.66667 0.66667,-0.66667 0.36666,0 0.66666,0.3 0.66666,0.66667 0,0.36666 -0.3,0.66666 -0.66666,0.66666 -0.36667,0 -0.66667,-0.3 -0.66667,-0.66666 z M 468.00001,347.33334 c 0,-0.36666 0.3,-0.66666 0.66667,-0.66666 0.36667,0 0.66667,0.3 0.66667,0.66666 0,0.36667 -0.3,0.66667 -0.66667,0.66667 -0.36667,0 -0.66667,-0.3 -0.66667,-0.66667 z m 0,-12 c 0,-0.36666 0.3,-0.66666 0.66667,-0.66666 0.36667,0 0.66667,0.3 0.66667,0.66666 0,0.36667 -0.3,0.66667 -0.66667,0.66667 -0.36667,0 -0.66667,-0.3 -0.66667,-0.66667 z M 237.33334,160.66667 c 0,-0.36667 0.3,-0.66667 0.66667,-0.66667 0.36666,0 0.66666,0.3 0.66666,0.66667 0,0.36667 -0.3,0.66667 -0.66666,0.66667 -0.36667,0 -0.66667,-0.3 -0.66667,-0.66667 z M 236.00001,158 c 0,-0.36666 0.3,-0.66666 0.66666,-0.66666 0.36667,0 0.66667,0.3 0.66667,0.66666 0,0.36667 -0.3,0.66667 -0.66667,0.66667 -0.36666,0 -0.66666,-0.3 -0.66666,-0.66667 z m -1.33334,-4 c 0,-0.36666 0.3,-0.66666 0.66667,-0.66666 0.36667,0 0.66667,0.3 0.66667,0.66666 0,0.36667 -0.3,0.66667 -0.66667,0.66667 -0.36667,0 -0.66667,-0.3 -0.66667,-0.66667 z m 0,-9.33333 c 0,-0.36667 0.3,-0.66667 0.66667,-0.66667 0.36667,0 0.66667,0.3 0.66667,0.66667 0,0.36667 -0.3,0.66667 -0.66667,0.66667 -0.36667,0 -0.66667,-0.3 -0.66667,-0.66667 z m 1.33334,-4 c 0,-0.36667 0.3,-0.66667 0.66666,-0.66667 0.36667,0 0.66667,0.3 0.66667,0.66667 0,0.36667 -0.3,0.66667 -0.66667,0.66667 -0.36666,0 -0.66666,-0.3 -0.66666,-0.66667 z M 237.33334,138 c 0,-0.36666 0.3,-0.66666 0.66667,-0.66666 0.36666,0 0.66666,0.3 0.66666,0.66666 0,0.36667 -0.3,0.66667 -0.66666,0.66667 -0.36667,0 -0.66667,-0.3 -0.66667,-0.66667 z m 6.66667,-6.66666 c 0,-0.36667 0.3,-0.66667 0.66666,-0.66667 0.36667,0 0.66667,0.3 0.66667,0.66667 0,0.36666 -0.3,0.66666 -0.66667,0.66666 -0.36666,0 -0.66666,-0.3 -0.66666,-0.66666 z m 22.66666,0 c 0,-0.36667 0.3,-0.66667 0.66667,-0.66667 0.36667,0 0.66667,0.3 0.66667,0.66667 0,0.36666 -0.3,0.66666 -0.66667,0.66666 -0.36667,0 -0.66667,-0.3 -0.66667,-0.66666 z m -20,-1.33334 c 0,-0.36666 0.3,-0.66666 0.66667,-0.66666 0.36667,0 0.66667,0.3 0.66667,0.66666 0,0.36667 -0.3,0.66667 -0.66667,0.66667 -0.36667,0 -0.66667,-0.3 -0.66667,-0.66667 z m 17.33334,0 c 0,-0.36666 0.3,-0.66666 0.66666,-0.66666 0.36667,0 0.66667,0.3 0.66667,0.66666 0,0.36667 -0.3,0.66667 -0.66667,0.66667 -0.36666,0 -0.66666,-0.3 -0.66666,-0.66667 z m -13.33334,-1.33333 c 0,-0.36667 0.3,-0.66667 0.66667,-0.66667 0.36667,0 0.66667,0.3 0.66667,0.66667 0,0.36667 -0.3,0.66667 -0.66667,0.66667 -0.36667,0 -0.66667,-0.3 -0.66667,-0.66667 z m 9.33334,0 c 0,-0.36667 0.3,-0.66667 0.66666,-0.66667 0.36667,0 0.66667,0.3 0.66667,0.66667 0,0.36667 -0.3,0.66667 -0.66667,0.66667 -0.36666,0 -0.66666,-0.3 -0.66666,-0.66667 z"
         id="path5" />
      <path
         style="fill:#000000;fill-opacity:1"
         d="m 252.00001,554.00002 c 0,-0.36667 0.3,-0.66667 0.66666,-0.66667 0.36667,0 0.66667,0.3 0.66667,0.66667 0,0.36666 -0.3,0.66666 -0.66667,0.66666 -0.36666,0 -0.66666,-0.3 -0.66666,-0.66666 z m 6.66666,0 c 0,-0.36667 0.3,-0.66667 0.66667,-0.66667 0.36667,0 0.66667,0.3 0.66667,0.66667 0,0.36666 -0.3,0.66666 -0.66667,0.66666 -0.36667,0 -0.66667,-0.3 -0.66667,-0.66666 z m -16,-4 c 0,-0.36667 0.3,-0.66667 0.66667,-0.66667 0.36667,0 0.66667,0.3 0.66667,0.66667 0,0.36666 -0.3,0.66666 -0.66667,0.66666 -0.36667,0 -0.66667,-0.3 -0.66667,-0.66666 z m 25.33334,0 c 0,-0.36667 0.3,-0.66667 0.66666,-0.66667 0.36667,0 0.66667,0.3 0.66667,0.66667 0,0.36666 -0.3,0.66666 -0.66667,0.66666 -0.36666,0 -0.66666,-0.3 -0.66666,-0.66666 z m -29.33334,-4 c 0,-0.36667 0.3,-0.66667 0.66667,-0.66667 0.36667,0 0.66667,0.3 0.66667,0.66667 0,0.36666 -0.3,0.66666 -0.66667,0.66666 -0.36667,0 -0.66667,-0.3 -0.66667,-0.66666 z m -4,-9.33334 c 0,-0.36666 0.3,-0.66666 0.66667,-0.66666 0.36667,0 0.66667,0.3 0.66667,0.66666 0,0.36667 -0.3,0.66667 -0.66667,0.66667 -0.36667,0 -0.66667,-0.3 -0.66667,-0.66667 z m 0,-6.66666 c 0,-0.36667 0.3,-0.66667 0.66667,-0.66667 0.36667,0 0.66667,0.3 0.66667,0.66667 0,0.36666 -0.3,0.66666 -0.66667,0.66666 -0.36667,0 -0.66667,-0.3 -0.66667,-0.66666 z m 4,-9.33334 c 0,-0.36666 0.3,-0.66666 0.66667,-0.66666 0.36667,0 0.66667,0.3 0.66667,0.66666 0,0.36667 -0.3,0.66667 -0.66667,0.66667 -0.36667,0 -0.66667,-0.3 -0.66667,-0.66667 z m 226.66668,-168 c 0,-0.36667 0.3,-0.66667 0.66666,-0.66667 0.36667,0 0.66667,0.3 0.66667,0.66667 0,0.36666 -0.3,0.66666 -0.66667,0.66666 -0.36666,0 -0.66666,-0.3 -0.66666,-0.66666 z m 1.33333,-2.66667 c 0,-0.36667 0.3,-0.66667 0.66667,-0.66667 0.36666,0 0.66666,0.3 0.66666,0.66667 0,0.36667 -0.3,0.66667 -0.66666,0.66667 -0.36667,0 -0.66667,-0.3 -0.66667,-0.66667 z m 1.33333,-4 c 0,-0.36667 0.3,-0.66667 0.66667,-0.66667 0.36667,0 0.66667,0.3 0.66667,0.66667 0,0.36667 -0.3,0.66667 -0.66667,0.66667 -0.36667,0 -0.66667,-0.3 -0.66667,-0.66667 z m 0,-9.33333 c 0,-0.36667 0.3,-0.66667 0.66667,-0.66667 0.36667,0 0.66667,0.3 0.66667,0.66667 0,0.36666 -0.3,0.66666 -0.66667,0.66666 -0.36667,0 -0.66667,-0.3 -0.66667,-0.66666 z m -1.33333,-4 c 0,-0.36667 0.3,-0.66667 0.66667,-0.66667 0.36666,0 0.66666,0.3 0.66666,0.66667 0,0.36666 -0.3,0.66666 -0.66666,0.66666 -0.36667,0 -0.66667,-0.3 -0.66667,-0.66666 z m -1.33333,-2.66667 c 0,-0.36667 0.3,-0.66667 0.66666,-0.66667 0.36667,0 0.66667,0.3 0.66667,0.66667 0,0.36667 -0.3,0.66667 -0.66667,0.66667 -0.36666,0 -0.66666,-0.3 -0.66666,-0.66667 z M 238.66667,162 c 0,-0.36666 0.3,-0.66666 0.66667,-0.66666 0.36667,0 0.66667,0.3 0.66667,0.66666 0,0.36667 -0.3,0.66667 -0.66667,0.66667 -0.36667,0 -0.66667,-0.3 -0.66667,-0.66667 z m -4,-9.33333 c 0,-0.36667 0.3,-0.66667 0.66667,-0.66667 0.36667,0 0.66667,0.3 0.66667,0.66667 0,0.36667 -0.3,0.66667 -0.66667,0.66667 -0.36667,0 -0.66667,-0.3 -0.66667,-0.66667 z m 0,-6.66667 c 0,-0.36666 0.3,-0.66666 0.66667,-0.66666 0.36667,0 0.66667,0.3 0.66667,0.66666 0,0.36667 -0.3,0.66667 -0.66667,0.66667 -0.36667,0 -0.66667,-0.3 -0.66667,-0.66667 z m 4,-9.33333 c 0,-0.36667 0.3,-0.66667 0.66667,-0.66667 0.36667,0 0.66667,0.3 0.66667,0.66667 0,0.36667 -0.3,0.66667 -0.66667,0.66667 -0.36667,0 -0.66667,-0.3 -0.66667,-0.66667 z m 4,-4 c 0,-0.36667 0.3,-0.66667 0.66667,-0.66667 0.36667,0 0.66667,0.3 0.66667,0.66667 0,0.36667 -0.3,0.66667 -0.66667,0.66667 -0.36667,0 -0.66667,-0.3 -0.66667,-0.66667 z m 25.33334,0 c 0,-0.36667 0.3,-0.66667 0.66666,-0.66667 0.36667,0 0.66667,0.3 0.66667,0.66667 0,0.36667 -0.3,0.66667 -0.66667,0.66667 -0.36666,0 -0.66666,-0.3 -0.66666,-0.66667 z m -16,-4 c 0,-0.36667 0.3,-0.66667 0.66666,-0.66667 0.36667,0 0.66667,0.3 0.66667,0.66667 0,0.36667 -0.3,0.66667 -0.66667,0.66667 -0.36666,0 -0.66666,-0.3 -0.66666,-0.66667 z m 6.66666,0 c 0,-0.36667 0.3,-0.66667 0.66667,-0.66667 0.36667,0 0.66667,0.3 0.66667,0.66667 0,0.36667 -0.3,0.66667 -0.66667,0.66667 -0.36667,0 -0.66667,-0.3 -0.66667,-0.66667 z"
         id="path4" />
      <path
         style="fill:#000000;fill-opacity:1"
         d="m 253.33334,554.00002 c 0,-0.36667 0.3,-0.66667 0.66667,-0.66667 0.36666,0 0.66666,0.3 0.66666,0.66667 0,0.36666 -0.3,0.66666 -0.66666,0.66666 -0.36667,0 -0.66667,-0.3 -0.66667,-0.66666 z m 4,0 c 0,-0.36667 0.3,-0.66667 0.66667,-0.66667 0.36666,0 0.66666,0.3 0.66666,0.66667 0,0.36666 -0.3,0.66666 -0.66666,0.66666 -0.36667,0 -0.66667,-0.3 -0.66667,-0.66666 z M 240.53935,547.794 c -0.58944,-0.95373 -0.36575,-1.17741 0.58798,-0.58797 1.537,0.94992 2.06355,2.12732 0.95137,2.12732 -0.32339,0 -1.0161,-0.69271 -1.53935,-1.53935 z m 122.79399,-93.12732 c 52.0628,-52.06667 94.95963,-94.66667 95.3263,-94.66667 0.36666,0 -41.93017,42.6 -93.99296,94.66667 -52.0628,52.06667 -94.95963,94.66667 -95.3263,94.66667 -0.36666,0 41.93017,-42.6 93.99296,-94.66667 z m -128.66667,80.66667 c 0,-0.36667 0.3,-0.66667 0.66667,-0.66667 0.36667,0 0.66667,0.3 0.66667,0.66667 0,0.36667 -0.3,0.66667 -0.66667,0.66667 -0.36667,0 -0.66667,-0.3 -0.66667,-0.66667 z m 0,-4 c 0,-0.36667 0.3,-0.66667 0.66667,-0.66667 0.36667,0 0.66667,0.3 0.66667,0.66667 0,0.36667 -0.3,0.66667 -0.66667,0.66667 -0.36667,0 -0.66667,-0.3 -0.66667,-0.66667 z M 328.66419,431.00001 417.99255,341.33334 328.66419,251.66667 239.33583,162 l 89.99752,89.66667 89.99752,89.66667 -89.99752,89.66667 -89.99752,89.66667 z m 35.33232,-202.66667 -95.32984,-95.66667 95.66667,95.32984 c 52.61667,52.43141 95.66667,95.48141 95.66667,95.66667 0,0.93496 -7.38495,-6.39817 -96.0035,-95.32984 z m -129.32984,-77 c 0,-0.36667 0.3,-0.66667 0.66667,-0.66667 0.36667,0 0.66667,0.3 0.66667,0.66667 0,0.36666 -0.3,0.66666 -0.66667,0.66666 -0.36667,0 -0.66667,-0.3 -0.66667,-0.66666 z m 0,-4 c 0,-0.36667 0.3,-0.66667 0.66667,-0.66667 0.36667,0 0.66667,0.3 0.66667,0.66667 0,0.36666 -0.3,0.66666 -0.66667,0.66666 -0.36667,0 -0.66667,-0.3 -0.66667,-0.66666 z m 6,-12.66667 c 0.45323,-0.73333 1.12405,-1.33333 1.49072,-1.33333 0.36666,0 0.29584,0.6 -0.15738,1.33333 C 241.54678,135.4 240.87596,136 240.5093,136 c -0.36667,0 -0.29585,-0.6 0.15737,-1.33333 z m 12.66667,-6 c 0,-0.36667 0.3,-0.66667 0.66667,-0.66667 0.36666,0 0.66666,0.3 0.66666,0.66667 0,0.36667 -0.3,0.66667 -0.66666,0.66667 -0.36667,0 -0.66667,-0.3 -0.66667,-0.66667 z m 4,0 c 0,-0.36667 0.3,-0.66667 0.66667,-0.66667 0.36666,0 0.66666,0.3 0.66666,0.66667 0,0.36667 -0.3,0.66667 -0.66666,0.66667 -0.36667,0 -0.66667,-0.3 -0.66667,-0.66667 z"
         id="path3" />
      <path
         style="fill:#000000;fill-opacity:1"
         d="m 250.8206,553.32603 c -5.97134,-1.40605 -13.39289,-8.99578 -14.77088,-15.10561 -2.59627,-11.51152 -6.06748,-7.52814 92.19468,-105.79815 l 91.08165,-91.08893 -91.08165,-91.08892 c -77.46022,-77.46642 -91.24729,-91.82338 -92.18927,-96 -3.34784,-14.84388 9.99443,-28.20778 24.82312,-24.86337 5.715,1.28895 201.89104,195.43313 206.0868,203.95229 6.21329,12.61564 8.59501,9.81551 -102.35289,120.33334 -69.68092,69.41081 -100.91558,99.66667 -102.89095,99.66667 -1.56004,0 -3.63551,0.23744 -4.61215,0.52763 -0.97665,0.2902 -3.80645,0.0495 -6.28846,-0.53495 z"
         id="path2" />
    </g>
  </g>
</svg>
