<?xml version="1.0" encoding="UTF-8" standalone="no"?>
<!-- Created with Inkscape (http://www.inkscape.org/) -->

<svg
   width="210mm"
   height="297mm"
   viewBox="0 0 210 297"
   version="1.1"
   id="svg1"
   xml:space="preserve"
   inkscape:export-filename="cart.svg"
   inkscape:export-xdpi="12.095238"
   inkscape:export-ydpi="12.095238"
   xmlns:inkscape="http://www.inkscape.org/namespaces/inkscape"
   xmlns:sodipodi="http://sodipodi.sourceforge.net/DTD/sodipodi-0.dtd"
   xmlns="http://www.w3.org/2000/svg"
   xmlns:svg="http://www.w3.org/2000/svg"><sodipodi:namedview
     id="namedview1"
     pagecolor="#ffffff"
     bordercolor="#000000"
     borderopacity="0.25"
     inkscape:showpageshadow="2"
     inkscape:pageopacity="0.0"
     inkscape:pagecheckerboard="0"
     inkscape:deskcolor="#d1d1d1"
     inkscape:document-units="mm" /><defs
     id="defs1" /><g
     inkscape:label="Camada 1"
     inkscape:groupmode="layer"
     id="layer1"><path
       style="fill:#000000"
       d="m 95.539107,202.18589 c -0.0445,-0.11867 -0.97554,-0.23537 -2.49457,-0.31269 -2.22416,-0.1132 -3.94034,-0.42474 -4.46222,-0.81004 -0.11427,-0.0844 -1.04972,-0.279 -2.07878,-0.43254 -1.02906,-0.15354 -1.99749,-0.37502 -2.15206,-0.49219 -0.35526,-0.2693 -1.32839,-0.52951 -2.50846,-0.67076 -0.50455,-0.0604 -1.25058,-0.29736 -1.65784,-0.52659 -0.40725,-0.22924 -1.04715,-0.4539 -1.42198,-0.49925 -0.75105,-0.0909 -1.37348,-0.31699 -2.08581,-0.75778 -0.25754,-0.15936 -0.94288,-0.39785 -1.52298,-0.52998 -0.58011,-0.13213 -1.39975,-0.43443 -1.82142,-0.67177 -0.42167,-0.23735 -0.87356,-0.43168 -1.00419,-0.43184 -0.13064,-1.6e-4 -0.61678,-0.22512 -1.08031,-0.49989 -0.46353,-0.27478 -0.94118,-0.49975 -1.06143,-0.49993 -0.27954,-4.2e-4 -1.44579,-0.54365 -1.5296,-0.71248 -0.035,-0.0704 -0.45629,-0.28691 -0.93627,-0.48104 -0.47997,-0.19413 -1.11102,-0.53108 -1.40233,-0.74879 -0.29131,-0.2177 -0.75473,-0.44298 -1.02983,-0.50062 -0.2751,-0.0576 -0.92163,-0.37956 -1.43673,-0.71539 -1.85865,-1.21176 -2.68835,-1.68414 -2.95729,-1.68366 -0.15061,2.7e-4 -0.3856,-0.11962 -0.52219,-0.26642 -0.25756,-0.27682 -2.6574,-1.90932 -3.19416,-2.17285 -0.31946,-0.15684 -1.70985,-1.13878 -2.22362,-1.57039 -0.16415,-0.13791 -1.17443,-0.96528 -2.24505,-1.83861 -4.16951,-3.40117 -9.09066,-8.05538 -10.53173,-9.96046 -0.86518,-1.14375 -1.38614,-1.74647 -2.51247,-2.90682 -0.31658,-0.32614 -0.6831,-0.83232 -0.8145,-1.12485 -0.1314,-0.29253 -0.39984,-0.66178 -0.59653,-0.82057 -0.1967,-0.15878 -0.35778,-0.35563 -0.35796,-0.43743 -1.8e-4,-0.0818 -0.32758,-0.54066 -0.72756,-1.01967 -0.39998,-0.47902 -0.82546,-1.14433 -0.94551,-1.47846 -0.12006,-0.33413 -0.38057,-0.73852 -0.57893,-0.89864 -0.19835,-0.16013 -0.45895,-0.56452 -0.5791,-0.89865 -0.12016,-0.33413 -0.36692,-0.75801 -0.54837,-0.94194 -0.43947,-0.4455 -0.937,-1.33836 -0.93776,-1.68288 -3.4e-4,-0.15254 -0.24186,-0.55159 -0.53671,-0.88678 -0.29486,-0.33519 -0.59402,-0.88978 -0.66481,-1.23243 -0.0708,-0.34265 -0.32535,-0.83216 -0.56569,-1.0878 -0.24033,-0.25564 -0.4958,-0.72853 -0.56769,-1.05085 -0.17301,-0.77558 -0.49565,-1.5067 -0.66478,-1.5064 -0.20409,3.7e-4 -0.72832,-1.16392 -0.86667,-1.9248 -0.067,-0.3684 -0.33471,-1.00146 -0.59495,-1.40679 -0.30061,-0.46821 -0.52474,-1.15021 -0.61459,-1.87011 -0.0938,-0.75157 -0.28308,-1.31055 -0.56209,-1.66 -0.28184,-0.35299 -0.52924,-1.09132 -0.74965,-2.23722 -0.18094,-0.94069 -0.42031,-1.85834 -0.53194,-2.03921 -0.50109,-0.81195 -0.79103,-2.06609 -0.79405,-3.43473 -0.003,-1.41229 -0.49133,-3.33916 -0.94961,-3.74797 -0.22228,-0.19827 -0.29549,-20.02796 -0.0739,-20.02835 0.3213,-5.7e-4 0.96562,-2.45736 0.96893,-3.69458 0.003,-1.18003 0.32607,-2.38321 0.88327,-3.29116 0.12363,-0.20145 0.22433,-0.57852 0.22378,-0.83793 -0.002,-0.79387 0.54717,-3.11806 0.80176,-3.39503 0.41162,-0.4478 0.6844,-1.17364 0.68371,-1.81925 -3.8e-4,-0.3473 0.23693,-1.04969 0.53921,-1.59601 0.29693,-0.53666 0.59526,-1.25329 0.66295,-1.59251 0.14969,-0.75013 0.67385,-1.874054 0.87416,-1.874404 0.0802,-1.4e-4 0.28278,-0.43393 0.45018,-0.96397 0.1674,-0.53004 0.51177,-1.16296 0.76528,-1.40649 0.2791,-0.26811 0.50329,-0.72997 0.56832,-1.17083 0.0599,-0.4063 0.34127,-1.0184 0.63658,-1.38502 0.29105,-0.36132 0.52895,-0.76195 0.52867,-0.89028 -2.9e-4,-0.12833 0.33513,-0.69794 0.74536,-1.26581 0.41024,-0.56786 0.74559,-1.16562 0.74523,-1.32836 -3.6e-4,-0.16273 0.23799,-0.5439 0.52966,-0.84705 0.29167,-0.30314 0.61875,-0.78565 0.72685,-1.07224 0.18797,-0.49838 1.07938,-1.68891 1.93297,-2.5816 0.2206,-0.23072 0.52422,-0.67977 0.67469,-0.99789 0.27377,-0.57879 1.17625,-1.6711 2.14688,-2.59846 0.28401,-0.27135 0.51623,-0.56243 0.51605,-0.64684 -1.9e-4,-0.0844 0.25153,-0.43945 0.55938,-0.78896 0.30784,-0.34952 0.5596,-0.68822 0.55945,-0.75268 -7.3e-4,-0.3324 8.06559,-7.841762 10.92021,-10.166178 1.71245,-1.394398 3.27646,-2.507953 3.52306,-2.50839 0.21296,-3.78e-4 2.90783,-1.895081 3.10633,-2.183988 0.053,-0.07713 0.30855,-0.188339 0.5679,-0.247124 0.25936,-0.05879 1.2468,-0.631852 2.19433,-1.273482 0.94752,-0.641629 1.83581,-1.166799 1.97398,-1.167044 0.13817,-2.45e-4 0.59929,-0.227199 1.02471,-0.504341 0.42542,-0.277143 0.84576,-0.504024 0.93409,-0.50418 0.0883,-1.57e-4 0.50866,-0.227038 0.93409,-0.504181 0.42542,-0.277142 0.86311,-0.504054 0.97264,-0.504248 0.18212,-3.23e-4 1.48809,-0.561046 2.88752,-1.239769 0.30829,-0.149519 0.6674,-0.272507 0.79803,-0.273306 0.13064,-7.99e-4 0.55149,-0.179735 0.93523,-0.397634 0.38374,-0.2179 1.20202,-0.527623 1.81841,-0.688273 0.61638,-0.16065 1.24673,-0.391119 1.40077,-0.512152 0.41811,-0.328519 1.66255,-0.758399 2.19821,-0.759348 0.25896,-4.59e-4 0.85842,-0.215251 1.33215,-0.477316 0.56803,-0.314238 1.23091,-0.511242 1.94676,-0.578568 0.60446,-0.05685 1.39138,-0.265913 1.77585,-0.471795 0.78034,-0.417874 2.42056,-0.815802 3.40661,-0.826468 0.36288,-0.0039 0.82557,-0.111421 1.0282,-0.23888 0.63165,-0.397311 2.52919,-0.746251 4.67007,-0.858781 2.1874,-0.114976 4.18407,-0.521937 4.3384,-0.88425 0.13442,-0.315584 21.664563,-0.363695 21.800353,-0.04872 0.16316,0.378448 2.06741,0.773231 4.16061,0.862559 1.99251,0.08503 2.94203,0.275331 4.11672,0.825062 0.30893,0.144576 0.73007,0.263031 0.93585,0.263234 0.81493,8.03e-4 2.84357,0.4751 3.48482,0.814756 0.37625,0.199287 1.22264,0.416976 1.90076,0.488869 0.88465,0.09379 1.40505,0.253805 1.88313,0.579035 0.45909,0.312315 0.88574,0.44903 1.39845,0.448121 0.79832,-0.0014 1.85505,0.335058 2.63421,0.838764 0.26941,0.174167 0.90251,0.396789 1.40689,0.494716 0.50438,0.09793 1.16372,0.36319 1.46522,0.589474 0.30149,0.226284 0.72177,0.411118 0.93397,0.410742 0.21219,-3.76e-4 0.77896,0.215006 1.25948,0.478628 0.48053,0.263621 1.07962,0.535924 1.33131,0.605117 0.2517,0.06919 0.83982,0.373897 1.30694,0.677118 0.46712,0.303222 1.09905,0.605416 1.40429,0.671543 0.30524,0.06613 0.83193,0.334536 1.17042,0.596465 0.33849,0.261929 0.76456,0.47597 0.94681,0.475647 0.36207,-6.42e-4 2.71648,1.421065 3.28953,1.98638 0.1964,0.193748 0.50312,0.35201 0.6816,0.351694 0.34759,-6.17e-4 2.35018,1.247547 3.25804,2.030653 0.303,0.261369 0.64815,0.475044 0.76698,0.474833 0.11884,-2.11e-4 0.37676,0.160388 0.57317,0.356886 0.1964,0.196498 0.58091,0.442346 0.85447,0.546329 1.52758,0.580656 13.27513,11.125816 13.27688,11.917956 2e-4,0.0916 0.15974,0.29512 0.35452,0.45236 0.19478,0.15725 0.59135,0.6205 0.88126,1.02945 0.28991,0.40896 0.59094,0.74344 0.66896,0.7433 0.078,-1.3e-4 0.3573,0.3275 0.62062,0.72808 0.26332,0.40058 0.64665,0.86386 0.85185,1.0295 0.20519,0.16565 0.37338,0.44003 0.37376,0.60974 3.7e-4,0.16972 0.27942,0.59097 0.62011,0.93612 1.07234,1.08638 1.95613,2.28097 2.08697,2.82087 0.0694,0.28635 0.37504,0.73334 0.67924,0.99331 0.30419,0.25997 0.55458,0.59048 0.55641,0.73447 0.004,0.28347 0.18685,0.59232 0.98287,1.65659 0.28374,0.37936 0.51624,0.84999 0.51667,1.04586 4.4e-4,0.19586 0.24671,0.63306 0.54729,0.97156 0.30057,0.33849 0.6069,0.90068 0.68073,1.2493 0.0738,0.34863 0.33163,0.84312 0.5729,1.09888 0.24127,0.25577 0.49606,0.78239 0.5662,1.17028 0.0701,0.38788 0.30963,0.94509 0.5322,1.23824 0.55367,0.729229 1.04533,1.867379 1.04655,2.422699 5.6e-4,0.25314 0.23085,0.76001 0.51174,1.12639 0.38009,0.49575 0.5418,0.95799 0.63221,1.80719 0.0816,0.76658 0.25049,1.29667 0.51454,1.6152 0.43396,0.5235 0.97471,2.35986 0.97864,3.32344 10e-4,0.33977 0.11088,0.80601 0.24334,1.0361 0.61957,1.0763 0.85523,2.03959 0.95939,3.92177 0.0608,1.09831 0.19716,2.07423 0.30306,2.16869 0.27018,0.24101 0.31369,21.57998 0.0445,21.82202 -0.10754,0.0967 -0.23672,0.99769 -0.28706,2.00223 -0.0916,1.82725 -0.41547,3.27868 -0.91831,4.1151 -0.14717,0.2448 -0.26707,0.67736 -0.26645,0.96124 0.002,0.81184 -0.37127,2.02581 -0.95288,3.10068 -0.34815,0.64344 -0.53382,1.25203 -0.53273,1.74623 10e-4,0.53334 -0.16436,1.02329 -0.55747,1.65001 -0.30754,0.49028 -0.55882,1.04179 -0.55842,1.22558 9.6e-4,0.43102 -0.53238,1.64679 -0.95861,2.18523 -0.18259,0.23065 -0.42053,0.78528 -0.52877,1.23251 -0.10824,0.44724 -0.39519,1.05078 -0.63767,1.3412 -0.24248,0.29042 -0.50222,0.79197 -0.57721,1.11456 -0.075,0.32258 -0.3776,0.86162 -0.67248,1.19785 -0.29487,0.33624 -0.53585,0.73614 -0.53552,0.88869 6.3e-4,0.28456 -0.51167,1.28423 -0.73517,1.43457 -0.31785,0.21381 -0.75589,0.94798 -0.75519,1.26572 4.3e-4,0.19377 -0.2102,0.53052 -0.46808,0.74834 -0.25787,0.21782 -0.67672,0.7782 -0.93078,1.24529 -0.69457,1.27695 -1.32933,2.18707 -1.95481,2.80281 -0.30929,0.30448 -0.56214,0.65309 -0.56187,0.77468 5.7e-4,0.2574 -1.14756,1.68975 -2.54687,3.17736 -0.5388,0.57279 -1.10823,1.26522 -1.26539,1.53873 -0.74767,1.30116 -6.59536,6.85722 -10.4774,9.9549 -2.02397,1.61502 -2.65497,2.06478 -4.09497,2.9188 -0.41095,0.24372 -0.83199,0.52932 -0.93565,0.63467 -0.48649,0.49442 -2.14748,1.61567 -2.72087,1.83671 -0.35168,0.13557 -1.32508,0.70905 -2.16313,1.2744 -0.83804,0.56534 -1.6884,1.02819 -1.88967,1.02854 -0.33247,5.9e-4 -1.05138,0.41003 -1.69016,0.9626 -0.13568,0.11737 -0.35019,0.21358 -0.4767,0.2138 -0.1265,2.2e-4 -0.74747,0.30284 -1.37992,0.67248 -0.63245,0.36964 -1.30082,0.67266 -1.48527,0.67338 -0.18444,7.2e-4 -0.71361,0.22747 -1.17592,0.50389 -0.46232,0.27642 -1.01821,0.50322 -1.23531,0.504 -0.21711,7.8e-4 -0.72024,0.20008 -1.11807,0.44289 -0.39783,0.24282 -1.2533,0.5741 -1.90105,0.7362 -0.64775,0.16209 -1.322,0.40506 -1.49833,0.53992 -0.38325,0.29311 -1.20081,0.5711 -2.09341,0.71181 -0.35824,0.0565 -0.96812,0.29122 -1.35527,0.52166 -0.48215,0.28698 -1.07203,0.44954 -1.87233,0.51598 -1.23271,0.10234 -2.10528,0.32795 -2.56996,0.66449 -0.28652,0.2075 -1.49149,0.48125 -2.99115,0.67952 -0.46279,0.0612 -0.96749,0.20064 -1.12156,0.30991 -0.65244,0.4627 -2.38805,0.76532 -4.72007,0.82298 -1.53391,0.0379 -2.46393,0.13103 -2.60864,0.26114 -0.31374,0.28209 -24.399713,0.33693 -24.505043,0.0558 z m -48.46004,-32.53337 c 0.65843,-0.63349 1.49037,-1.52067 1.84875,-1.9715 0.69501,-0.87427 4.21526,-4.09241 4.47711,-4.09287 0.086,-1.5e-4 0.77621,-0.47249 1.53389,-1.04964 0.75769,-0.57716 1.71103,-1.20072 2.11855,-1.3857 0.40751,-0.18498 0.78291,-0.38421 0.83422,-0.44273 0.0513,-0.0585 0.59776,-0.34981 1.21433,-0.64732 0.61658,-0.2975 1.2537,-0.64657 1.41582,-0.77569 0.16213,-0.12913 0.35589,-0.23489 0.43059,-0.23502 0.19237,-3.4e-4 1.87148,-0.6949 1.98388,-0.82062 0.20287,-0.22692 1.53439,-0.69319 1.9818,-0.69398 0.26087,-4.6e-4 0.82568,-0.21673 1.25512,-0.48058 0.47218,-0.29012 1.1252,-0.5142 1.65211,-0.56693 0.47923,-0.0479 1.27487,-0.26301 1.76809,-0.47793 1.08263,-0.47173 1.93003,-0.61947 4.75132,-0.82838 1.18597,-0.0878 2.40605,-0.24895 2.7113,-0.35808 1.03382,-0.3696 8.15277,-0.48623 32.444713,-0.53153 23.71486,-0.0442 30.04467,0.0394 30.81513,0.40688 0.21045,0.10038 0.87554,0.22307 1.47799,0.27262 2.2686,0.18662 3.74486,0.45636 4.67576,0.85437 0.52858,0.22599 1.44951,0.45517 2.04651,0.50928 0.75015,0.068 1.32901,0.24497 1.87386,0.57287 0.43361,0.26097 0.95528,0.47419 1.15926,0.47383 0.46325,-8.2e-4 1.56044,0.40231 2.45199,0.90091 0.37372,0.20901 0.91557,0.43179 1.20412,0.49507 0.28854,0.0633 0.86991,0.33814 1.29193,0.61079 0.42203,0.27265 0.84253,0.49559 0.93446,0.49542 0.0919,-1.6e-4 0.39449,0.18775 0.67235,0.41758 0.27787,0.22983 0.60202,0.41771 0.72035,0.4175 0.2179,-3.9e-4 2.44024,1.38063 2.78516,1.73077 0.10311,0.10467 1.04931,0.85067 2.10268,1.65779 1.05337,0.80712 2.51169,2.08597 3.24072,2.84189 0.72903,0.75593 1.88629,1.89365 2.5717,2.52827 l 1.24619,1.15387 0.53513,-0.57075 c 0.29432,-0.31391 0.71903,-0.7832 0.9438,-1.04286 0.22476,-0.25967 0.63878,-0.71267 0.92004,-1.00668 0.28127,-0.29401 0.56583,-0.68542 0.63236,-0.86979 0.0665,-0.18438 0.4448,-0.77457 0.84058,-1.31153 0.39579,-0.53696 0.72292,-1.0275 0.72696,-1.09009 0.004,-0.0626 0.25586,-0.37522 0.55959,-0.69473 0.30373,-0.31951 0.55193,-0.71892 0.55156,-0.88758 -3.8e-4,-0.16866 0.33511,-0.7066 0.74552,-1.19543 0.41041,-0.48882 0.74595,-0.99919 0.74565,-1.13414 -3e-4,-0.13496 0.21114,-0.50339 0.46985,-0.81875 0.25872,-0.31535 0.55982,-0.87702 0.66913,-1.24816 0.1093,-0.37114 0.39353,-0.90646 0.63162,-1.1896 0.23808,-0.28315 0.52386,-0.81981 0.63506,-1.19259 0.1112,-0.37277 0.41868,-0.9647 0.68329,-1.31539 0.27033,-0.35828 0.58419,-1.12743 0.71641,-1.75564 0.13495,-0.64117 0.44588,-1.39672 0.72903,-1.77149 0.313,-0.41428 0.49323,-0.87923 0.49237,-1.27019 -7.6e-4,-0.34444 0.23738,-1.04873 0.53941,-1.59528 0.29743,-0.53821 0.58558,-1.28017 0.64034,-1.64878 0.21672,-1.45875 0.51859,-2.8458 0.6552,-3.01056 0.377,-0.45467 0.74306,-1.81031 0.81613,-3.02234 0.0473,-0.78538 0.30009,-1.99939 0.61052,-2.93248 l 0.52974,-1.59226 -0.0185,-8.45913 -0.0185,-8.45913 -0.60629,-2.00538 c -0.43169,-1.42787 -0.6071,-2.37212 -0.6091,-3.27882 -0.002,-1.03708 -0.0916,-1.42622 -0.4809,-2.09663 -0.28418,-0.48934 -0.61682,-1.53629 -0.82017,-2.58144 -0.21681,-1.11436 -0.52395,-2.05841 -0.83872,-2.57796 -0.27315,-0.45085 -0.49721,-1.08062 -0.49791,-1.39949 -7.1e-4,-0.31886 -0.24708,-1.00445 -0.54749,-1.52353 -0.30042,-0.51907 -0.60211,-1.16981 -0.67043,-1.44608 -0.0683,-0.27626 -0.40499,-1.02945 -0.74817,-1.67375 -0.34318,-0.6443 -0.68706,-1.434414 -0.76418,-1.755814 -0.0771,-0.32139 -0.32618,-0.81091 -0.55347,-1.08782 -0.22728,-0.2769 -0.56167,-0.86262 -0.74309,-1.3016 -0.18142,-0.43897 -0.44879,-0.90423 -0.59416,-1.03391 -0.14537,-0.12967 -0.26442,-0.28629 -0.26455,-0.34805 -5.9e-4,-0.26515 -0.6769,-1.38016 -1.16215,-1.91597 -0.28971,-0.3199 -0.52703,-0.7126 -0.52738,-0.87266 -3.6e-4,-0.16006 -0.23814,-0.5382 -0.5284,-0.84031 -0.29027,-0.30212 -0.68168,-0.84586 -0.86981,-1.20832 -0.18812,-0.36246 -0.41925,-0.73894 -0.51361,-0.83663 -0.0944,-0.0977 -0.44159,-0.53287 -0.77161,-0.96708 -2.55769,-3.36512 -3.28615,-4.24123 -4.62844,-5.56657 -0.83827,-0.82768 -1.96238,-1.99405 -2.49802,-2.59194 -1.03355,-1.153658 -5.70289,-5.350154 -5.95249,-5.349712 -0.0812,1.44e-4 -0.25917,-0.09476 -0.39536,-0.210892 -1.34081,-1.143322 -4.52269,-3.435799 -5.91145,-4.259076 -0.95111,-0.563829 -1.83607,-1.105592 -1.96659,-1.203917 -0.74028,-0.557688 -1.99857,-1.3065 -2.49461,-1.484551 -0.31433,-0.112826 -0.8006,-0.394628 -1.0806,-0.626226 -0.28001,-0.231597 -0.78115,-0.501947 -1.11365,-0.600777 -0.3325,-0.09883 -0.85741,-0.343759 -1.16647,-0.544287 -0.30906,-0.200529 -0.96164,-0.534688 -1.45017,-0.742576 -0.48853,-0.207888 -0.9318,-0.440821 -0.98504,-0.517629 -0.0532,-0.07681 -0.49603,-0.272486 -0.98396,-0.434841 -0.48794,-0.162355 -1.15328,-0.472229 -1.47853,-0.688609 -0.32525,-0.21638 -0.91492,-0.438847 -1.31038,-0.494372 -0.83985,-0.117921 -2.21701,-0.612633 -2.38663,-0.857343 -0.0647,-0.09338 -0.60043,-0.263611 -1.19045,-0.378284 -0.59002,-0.114672 -1.38725,-0.391306 -1.77163,-0.614742 -0.39244,-0.228117 -1.09002,-0.440016 -1.59092,-0.483262 -0.99327,-0.08576 -2.42703,-0.492635 -2.85758,-0.810937 -0.15457,-0.114265 -1.08089,-0.328817 -2.05851,-0.476782 -0.97761,-0.147964 -2.28288,-0.444755 -2.90059,-0.659533 -0.80107,-0.278536 -1.69598,-0.420536 -3.12107,-0.495234 -1.77941,-0.09327 -3.54781,-0.367648 -5.85998,-0.90921 -0.92408,-0.216439 -14.78043,-0.204511 -15.99196,0.01377 -0.46274,0.08337 -1.346183,0.231044 -1.963203,0.328163 -0.61702,0.09712 -1.58462,0.251515 -2.15021,0.343101 -0.5656,0.09159 -1.78576,0.216094 -2.71148,0.276684 -1.00157,0.06555 -2.13723,0.26144 -2.80454,0.483748 -0.61678,0.20547 -1.87865,0.50477 -2.80415,0.665109 -0.92549,0.160339 -2.14306,0.486332 -2.7057,0.724429 -0.56265,0.238096 -1.49264,0.483341 -2.06667,0.544987 -0.63689,0.0684 -1.28467,0.266412 -1.66199,0.50804 -0.34007,0.217775 -1.00819,0.461799 -1.48471,0.542275 -0.47651,0.08048 -1.455,0.403735 -2.17441,0.718352 -0.71941,0.314618 -1.54619,0.619423 -1.83729,0.677346 -0.29109,0.05792 -0.83768,0.286751 -1.21464,0.508509 -0.37695,0.221758 -0.93776,0.455818 -1.24624,0.520134 -0.30847,0.06432 -0.82408,0.293005 -1.1458,0.508198 -0.32172,0.215193 -0.95231,0.520684 -1.40131,0.678869 -0.449,0.158185 -1.12259,0.501532 -1.49687,0.762994 -0.37428,0.261461 -0.87967,0.475737 -1.1231,0.476169 -0.24343,4.31e-4 -0.68175,0.200169 -0.97404,0.443861 -0.67822,0.565446 -2.0793,1.414287 -2.94416,1.783712 -0.36954,0.157852 -0.77843,0.402425 -0.90864,0.543497 -0.25018,0.271066 -2.38595,1.57235 -3.17668,1.935499 -0.48224,0.22147 -1.14158,0.717874 -3.09858,2.332866 -0.62575,0.516394 -1.63401,1.31497 -2.24057,1.774613 -2.27597,1.724706 -4.25088,3.533618 -6.52186,5.973691 -0.20866,0.2242 -1.04844,1.08723 -1.86617,1.91784 -1.84214,1.87117 -2.54657,2.68518 -2.9762,3.43919 -0.3138,0.55075 -0.54785,0.83949 -1.81585,2.24025 -0.27919,0.30842 -0.66679,0.89283 -0.86133,1.29868 -0.19454,0.40585 -0.52787,0.87794 -0.74074,1.0491 -0.21286,0.17115 -0.44258,0.54846 -0.51047,0.83844 -0.0679,0.28999 -0.32945,0.77386 -0.58124,1.07526 -0.25179,0.3014 -0.62659,0.89156 -0.83289,1.31147 -0.20629,0.41991 -0.57834,1.03286 -0.82678,1.36212 -0.24843,0.32925 -0.45145,0.70661 -0.45116,0.83858 2.9e-4,0.13196 -0.22906,0.59238 -0.50966,1.02315 -0.28061,0.43077 -0.65722,1.17579 -0.83691,1.65561 -0.17969,0.47981 -0.52544,1.13576 -0.76832,1.45766 -0.24289,0.32191 -0.49861,0.90858 -0.56827,1.30373 -0.0697,0.39515 -0.25661,0.84757 -0.41545,1.00539 -0.40335,0.40074 -0.79382,1.4539 -0.80201,2.16314 -0.004,0.32825 -0.23013,1.00706 -0.50299,1.50847 -0.4698,0.86331 -0.62973,1.41724 -0.91635,3.17375 -0.0677,0.4147 -0.33434,1.16317 -0.5926,1.66326 -0.36974,0.71594 -0.49683,1.30379 -0.59778,2.76494 -0.0705,1.02063 -0.22959,2.19507 -0.35351,2.60988 -0.6994,2.34114 -0.73794,2.69183 -0.81026,7.37179 -0.0406,2.62576 -0.004,6.5077 0.0808,8.62652 0.13045,3.25202 0.21881,4.03504 0.56698,5.02424 0.26018,0.73921 0.46279,1.88538 0.54881,3.10463 0.11136,1.57826 0.22611,2.10042 0.62558,2.84653 0.46169,0.86232 0.91195,2.49494 0.91376,3.31321 4.5e-4,0.20349 0.24113,0.77136 0.53484,1.26195 0.32058,0.53546 0.57931,1.27745 0.64733,1.85646 0.0732,0.62306 0.28205,1.19186 0.58998,1.60681 0.26218,0.35328 0.52921,0.92881 0.59342,1.27895 0.0642,0.35015 0.27433,0.90018 0.46695,1.22229 0.88376,1.47788 1.1077,1.95541 1.11245,2.37216 0.003,0.24629 0.21046,0.66549 0.46146,0.93157 0.25101,0.26608 0.61689,0.8554 0.81308,1.3096 0.19619,0.4542 0.58195,1.11861 0.85725,1.47646 0.2753,0.35785 0.5007,0.72299 0.50089,0.81141 5.1e-4,0.22724 1.30471,2.13608 1.80166,2.63693 0.22814,0.22992 0.54832,0.70711 0.71152,1.06044 0.1632,0.35332 0.55106,0.92882 0.86191,1.27888 0.31084,0.35007 0.56531,0.69617 0.56547,0.76911 5.5e-4,0.24914 2.76504,3.08067 3.00731,3.08024 0.0648,-1.1e-4 0.65653,-0.51852 1.31496,-1.15202 z m 54.477183,-20.06519 c -0.91325,-0.30044 -1.844593,-0.48697 -2.426353,-0.48594 -0.96652,0.002 -2.40875,-0.37981 -2.93706,-0.77696 -0.16268,-0.1223 -0.55773,-0.22189 -0.8779,-0.22132 -0.32016,5.6e-4 -0.62851,-0.0659 -0.68523,-0.14774 -0.0567,-0.0818 -0.33549,-0.19898 -0.6195,-0.26036 -0.284,-0.0614 -0.81456,-0.28542 -1.17901,-0.49789 -0.36446,-0.21246 -0.95414,-0.44122 -1.31041,-0.50835 -0.35627,-0.0671 -0.9161,-0.30176 -1.24406,-0.52142 -0.32795,-0.21965 -0.66503,-0.4018 -0.74905,-0.40478 -0.46045,-0.0163 -3.4509,-1.62267 -3.70603,-1.99073 -0.0717,-0.10338 -0.43925,-0.37008 -0.81686,-0.59266 -2.7939,-1.64682 -5.20163,-3.72905 -7.43336,-6.42845 -0.30944,-0.37429 -0.92123,-1.08218 -1.35952,-1.5731 -0.43829,-0.49092 -0.79701,-0.94213 -0.79714,-1.0027 -1.3e-4,-0.0606 -0.25344,-0.42185 -0.5629,-0.80284 -0.30946,-0.381 -0.56282,-0.76852 -0.56302,-0.86116 -2.1e-4,-0.0926 -0.2063,-0.40924 -0.45798,-0.70354 -0.25168,-0.2943 -0.63102,-0.97419 -0.84298,-1.51087 -0.21195,-0.53668 -0.46109,-1.01829 -0.55364,-1.07025 -0.28219,-0.15843 -0.77424,-1.35986 -0.77542,-1.89331 -6.1e-4,-0.27648 -0.24685,-0.92641 -0.54719,-1.44427 -0.38008,-0.65534 -0.61176,-1.39307 -0.7621,-2.42677 -0.1188,-0.81685 -0.34851,-1.79636 -0.51047,-2.1767 -0.47027,-1.10436 -0.86888,-6.05948 -0.64565,-8.02594 0.10241,-0.90206 0.18547,-1.96677 0.18459,-2.36602 -8.9e-4,-0.39926 0.16162,-1.05816 0.36111,-1.46423 0.1995,-0.40606 0.46229,-1.45257 0.58398,-2.32556 0.16367,-1.17415 0.35952,-1.80902 0.7525,-2.43929 0.29218,-0.46862 0.53072,-1.08985 0.53008,-1.38053 -6.5e-4,-0.29068 0.33403,-1.11434 0.74372,-1.83037 0.40969,-0.71602 0.7448,-1.42034 0.7447,-1.565154 -1e-4,-0.14482 0.24932,-0.55984 0.55428,-0.92228 0.30495,-0.36244 0.55662,-0.7419 0.55926,-0.84324 0.003,-0.10134 0.25661,-0.49688 0.56438,-0.87897 0.30777,-0.38209 0.55944,-0.76052 0.55926,-0.84096 -1.8e-4,-0.0804 0.25679,-0.40191 0.57104,-0.71438 0.31425,-0.31246 0.7772,-0.8323 1.02876,-1.1552 1.41835,-1.8205 2.06345,-2.53172 3.49919,-3.85778 1.54016,-1.42249 3.06131,-2.56088 4.4324,-3.3171 0.36638,-0.20208 0.82858,-0.52903 1.02712,-0.72658 0.19854,-0.19754 0.77176,-0.55904 1.27382,-0.80333 0.50207,-0.24429 1.38486,-0.68375 1.96177,-0.97657 1.24036,-0.62959 2.57309,-1.23284 2.72421,-1.23311 0.0591,-1.1e-4 0.43151,-0.18418 0.82753,-0.40905 0.39602,-0.22487 1.25647,-0.49653 1.91212,-0.60369 0.65564,-0.10716 1.48635,-0.338 1.84602,-0.51299 1.08136,-0.52612 2.27963,-0.82654 3.31435,-0.83095 0.537993,-0.002 1.295273,-0.11181 1.682833,-0.24337 1.66478,-0.56512 2.79271,-0.68825 6.31489,-0.6894 3.52769,-0.001 5.46691,0.19329 6.77572,0.67936 0.3313,0.12304 1.18928,0.22267 1.90661,0.2214 0.71734,-10e-4 1.35644,0.073 1.42022,0.16499 0.0638,0.092 0.2583,0.16816 0.43226,0.16921 0.17395,10e-4 0.52694,0.11026 0.78442,0.24268 0.85208,0.43824 1.39304,0.61199 2.43325,0.78151 0.56601,0.0923 1.15555,0.25837 1.3101,0.36916 0.33391,0.23935 0.90497,0.47006 2.09135,0.8449 0.48087,0.15194 0.97566,0.38517 1.09953,0.5183 0.12387,0.13312 0.32012,0.24238 0.43611,0.2428 0.116,4.2e-4 0.79828,0.33841 1.51619,0.7511 0.7179,0.41269 1.37638,0.75022 1.46327,0.75006 0.0869,-1.5e-4 0.55302,0.29582 1.03583,0.65771 0.48282,0.3619 1.71803,1.28309 2.74491,2.04711 2.12354,1.57995 2.87691,2.22745 3.94177,3.38788 0.95574,1.04152 1.85256,2.005 2.85916,3.07169 0.43823,0.46439 0.79694,0.91327 0.79712,0.99751 1.9e-4,0.0842 0.25354,0.46489 0.563,0.84588 0.30945,0.381 0.56283,0.77667 0.56306,0.87926 2.3e-4,0.1026 0.23594,0.49857 0.5238,0.87994 0.28786,0.38137 0.67605,1.12642 0.86264,1.655664 0.18659,0.52924 0.41348,1.00316 0.50419,1.05315 0.27461,0.15132 0.6964,1.12066 0.81959,1.88352 0.11135,0.68955 0.33281,1.1678 0.79102,1.70824 0.11699,0.13799 0.30923,0.98714 0.4272,1.88701 0.11797,0.89987 0.35056,1.95475 0.51686,2.3442 0.51912,1.21566 0.8187,5.05245 0.62419,7.9941 -0.0976,1.47554 -0.28543,2.85002 -0.43511,3.18343 -0.2943,0.65556 -0.57412,1.92565 -0.75685,3.43526 -0.0669,0.55289 -0.21658,1.1185 -0.33257,1.2569 -0.47288,0.56425 -0.69108,1.05336 -0.80401,1.80226 -0.0654,0.43377 -0.4403,1.34431 -0.83308,2.02341 -0.39278,0.67911 -0.714,1.29936 -0.71382,1.37835 1.7e-4,0.079 -0.25145,0.47913 -0.55916,0.8892 -0.30771,0.41008 -0.55931,0.81852 -0.55911,0.90765 1.9e-4,0.0891 -0.25152,0.44706 -0.55937,0.7954 -0.30785,0.34833 -0.55947,0.74915 -0.55915,0.89071 3.1e-4,0.14156 -0.52058,0.82937 -1.15753,1.52847 -0.63695,0.6991 -1.22068,1.34658 -1.29718,1.43885 -1.44574,1.74386 -3.49843,3.54533 -6.46248,5.67157 -0.54202,0.38882 -1.26913,0.91609 -1.6158,1.17173 -0.34667,0.25563 -0.90933,0.55245 -1.25036,0.6596 -0.34103,0.10715 -0.98619,0.44613 -1.43368,0.7533 -0.4475,0.30717 -0.94654,0.55873 -1.10898,0.55902 -0.16243,2.8e-4 -0.56767,0.18731 -0.90051,0.41561 -0.33285,0.2283 -0.94813,0.48473 -1.36729,0.56986 -0.41916,0.0851 -1.1403,0.38008 -1.60254,0.65546 -0.46223,0.27538 -1.20041,0.55269 -1.6404,0.61624 -0.43998,0.0636 -1.30451,0.32865 -1.92116,0.5891 -0.89542,0.37818 -1.47898,0.49237 -2.89788,0.56704 -1.32013,0.0695 -2.07588,0.20578 -2.941,0.53049 -1.1486,0.43109 -1.22566,0.43694 -5.70379,0.43276 l -4.53946,-0.004 z"
       id="path1" /></g></svg>
